<svg version="1.1" id="Layer_1" xmlns="http://www.w3.org/2000/svg" xmlns:xlink="http://www.w3.org/1999/xlink" x="0px" y="0px"
	 width="100%" viewBox="0 0 896 474" enable-background="new 0 0 896 474" xml:space="preserve">
<path fill="#EBAC56" opacity="1.000000" stroke="none" 
	d="
M663.000000,475.000000 
	C442.000031,475.000000 221.500076,475.000000 1.000089,475.000000 
	C1.000059,317.000061 1.000059,159.000137 1.000030,1.000152 
	C299.666534,1.000102 598.333069,1.000102 896.999756,1.000051 
	C896.999817,158.999847 896.999817,316.999695 896.999878,474.999756 
	C819.166687,475.000000 741.333313,475.000000 663.000000,475.000000 
M805.686523,244.410141 
	C805.480530,244.740799 805.274536,245.071442 805.008179,245.723831 
	C804.905029,245.935638 804.738464,246.067078 803.709473,246.195343 
	C801.688416,246.804398 799.667419,247.413452 797.489197,247.500488 
	C797.637085,247.185822 797.784973,246.871155 797.944336,245.677628 
	C797.627930,243.779633 797.311523,241.881638 796.794617,239.372971 
	C796.812134,238.947968 796.829651,238.522949 797.357056,237.631104 
	C799.621094,233.740219 804.345215,231.199448 804.717346,224.914017 
	C801.358032,227.079865 799.791870,231.762009 795.651062,227.170746 
	C795.422668,224.851349 795.170959,222.533966 794.969849,220.212204 
	C793.373779,201.787415 791.735046,183.366043 790.244995,164.932648 
	C789.970154,161.532349 788.797363,159.648590 784.914734,159.944427 
	C784.914734,161.692398 784.795105,163.334564 784.932556,164.954941 
	C787.129822,190.848419 789.143738,216.760361 791.684021,242.620483 
	C792.771851,253.694290 793.191406,264.388397 788.472961,274.892456 
	C785.963440,280.479126 784.638916,286.589905 782.626343,292.411133 
	C781.433228,295.861816 782.448669,297.425110 786.465027,297.450562 
	C789.991211,286.827789 793.431458,276.243683 797.057495,265.723633 
	C797.794434,263.585724 798.925476,261.425415 800.392822,259.721527 
	C819.526794,237.503448 838.758728,215.369843 857.951172,193.202103 
	C859.980408,190.858215 861.915405,188.432648 864.465332,185.355728 
	C843.223511,178.432602 822.829041,171.785645 801.854492,165.191162 
	C801.652222,165.850464 801.449951,166.509766 801.270630,167.843613 
	C801.188904,168.513184 801.107178,169.182755 801.317505,170.284286 
	C801.573608,170.517838 801.829712,170.751389 802.024475,170.908524 
	C802.024475,170.908524 802.101135,170.847519 802.148499,171.642151 
	C804.230103,175.983261 808.108154,173.204865 811.051270,173.855362 
	C811.051270,173.855362 811.100830,173.799210 811.326172,174.522598 
	C813.256287,174.981537 815.186401,175.440460 817.060730,175.858749 
	C817.060730,175.858749 817.120056,175.823471 817.058655,176.762360 
	C816.994812,179.248123 817.415466,181.870087 816.763184,184.190399 
	C815.529053,188.580292 816.049927,191.985214 820.520386,193.933395 
	C812.588928,206.519485 813.244385,211.689468 823.252075,219.333755 
	C822.894836,221.387009 822.563965,223.288803 822.312927,225.192795 
	C822.312927,225.192795 822.313904,225.272629 821.566284,225.264801 
	C820.419495,226.893005 819.272705,228.521225 818.058044,230.092560 
	C818.058044,230.092560 818.116333,230.025894 817.703125,230.339828 
	C817.481079,230.603897 817.259033,230.867981 817.149841,231.054977 
	C817.149841,231.054977 817.226196,231.168335 816.494568,231.221207 
	C815.361511,232.855240 814.228516,234.489258 813.043701,236.028717 
	C813.043701,236.028717 813.127991,236.095978 812.391846,236.109375 
	C811.257446,237.717651 810.123047,239.325928 808.994751,241.005142 
	C808.994751,241.005142 808.923767,241.010803 808.575806,241.308838 
	C808.356995,241.525787 808.171814,241.768417 807.999390,241.998627 
	C807.999390,241.998627 808.036987,242.020355 807.644043,242.316711 
	C807.396912,242.537216 807.188232,242.789566 807.008728,243.009323 
	C807.008728,243.009323 807.073425,243.016586 806.669678,243.330154 
	C806.455139,243.594009 806.240601,243.857880 806.015198,244.021942 
	C806.015198,244.021942 806.115051,244.012070 805.686523,244.410141 
M618.509521,163.823929 
	C618.323853,163.533600 618.059631,163.369766 617.663940,163.235977 
	C617.663940,163.235977 617.690857,163.345779 617.476135,162.812408 
	C617.000793,162.526596 616.525452,162.240784 616.000000,161.999390 
	C616.000000,161.999390 616.044556,161.949310 615.900574,161.398209 
	C615.471375,161.062958 615.042175,160.727707 614.526001,160.441528 
	C614.526001,160.441528 614.461548,160.365311 614.595093,159.645447 
	C612.937622,158.295914 611.280151,156.946381 609.515808,155.532776 
	C609.515808,155.532776 609.559265,155.416000 609.398682,154.861740 
	C608.922668,154.581924 608.446594,154.302124 607.999512,153.997543 
	C607.999512,153.997543 607.985168,154.032303 607.733521,153.601044 
	C607.519470,153.334518 607.252808,153.140167 606.398560,152.654236 
	C604.581360,150.814362 602.764221,148.974503 600.705994,146.683640 
	C600.440002,146.475861 600.174011,146.268082 599.991150,146.070145 
	C599.991150,146.070145 599.909241,146.090134 599.807312,145.534164 
	C599.384094,145.226822 598.960938,144.919479 598.328796,144.596603 
	C598.328796,144.596603 598.227356,144.413208 598.466003,143.704956 
	C596.252869,138.269226 592.681091,136.871246 588.572998,140.697815 
	C588.429932,141.512527 588.156372,142.328262 588.162659,143.141815 
	C588.395203,173.285095 588.657898,203.428131 588.899780,233.571335 
	C588.917114,235.733902 589.150574,238.036743 591.957886,237.340652 
	C593.005798,237.080811 594.240173,234.809280 594.231812,233.462173 
	C594.070190,207.316757 593.725037,181.172501 593.464233,155.027542 
	C593.445801,153.179947 593.788513,151.328751 594.088928,148.149246 
	C607.195801,160.882019 619.296509,172.637390 631.596375,184.586197 
	C644.268982,172.376236 656.618774,160.477386 669.024963,148.524155 
	C669.024963,155.009247 668.988037,161.813828 669.032043,168.617874 
	C669.155762,187.770309 669.228638,206.923828 669.523621,226.073792 
	C669.586670,230.165192 668.251648,231.837006 664.092590,231.653519 
	C659.943481,231.470474 655.773499,231.815964 651.612061,231.845093 
	C637.455933,231.944199 623.298767,231.956467 609.144287,232.160309 
	C607.765808,232.180161 606.268921,233.119385 605.114075,234.005981 
	C604.763367,234.275208 605.117126,236.431320 605.599915,236.630951 
	C606.914490,237.174515 608.471191,237.306305 609.930542,237.299500 
	C629.748962,237.206985 649.568176,236.904724 669.384521,237.045914 
	C674.204956,237.080246 675.201416,235.367966 675.119751,230.978912 
	C674.794250,213.495834 674.831421,196.006363 674.652100,178.520096 
	C674.530884,166.697083 674.330627,154.874069 674.044189,143.054001 
	C673.943665,138.904053 671.646790,137.774475 668.233887,140.098984 
	C666.875854,141.023926 665.752319,142.311020 664.585510,143.495834 
	C657.812073,150.374054 651.057617,157.270950 643.816467,164.380417 
	C643.599609,164.652588 643.382751,164.924759 643.221375,165.157700 
	C643.221375,165.157700 643.214294,165.225235 642.576782,165.327637 
	C642.110352,165.972977 641.643921,166.618301 640.888000,167.722687 
	C640.372253,168.225739 639.856506,168.728790 638.618713,169.275482 
	C634.880371,170.865494 632.206665,175.802994 627.000183,172.999161 
	C627.000183,172.999161 627.046570,172.943481 626.985596,172.232529 
	C625.223694,170.622116 623.461792,169.011688 621.644958,167.345642 
	C621.644958,167.345642 621.690063,167.281769 621.507996,166.841354 
	C621.309937,166.565903 621.042358,166.409286 620.639587,166.362045 
	C620.639587,166.362045 620.630554,166.296463 620.479675,165.851227 
	C620.295044,165.569336 620.035278,165.409576 619.636475,165.359695 
	C619.636475,165.359695 619.630249,165.294968 619.480103,164.845596 
	C619.297180,164.560822 619.038208,164.394501 618.676514,164.315903 
	C618.676514,164.315903 618.656799,164.280426 618.509521,163.823929 
M89.545174,131.114197 
	C89.316544,131.345337 89.204445,131.623413 88.981522,132.327805 
	C88.981522,132.327805 88.901115,132.762711 88.450546,133.205582 
	C88.239830,133.791489 88.029121,134.377380 87.898445,134.925217 
	C87.898445,134.925217 87.856506,134.847137 87.343895,135.257446 
	C86.611435,136.838806 85.878983,138.420166 84.956604,140.362503 
	C84.956604,140.362503 84.919052,140.768661 84.562454,141.109879 
	C84.341438,141.374481 84.234978,141.679108 84.109993,142.131454 
	C84.109993,142.131454 84.123718,142.302094 83.678345,142.813797 
	C82.163597,148.194885 80.648857,153.575989 78.976753,159.625824 
	C78.973267,160.082962 78.969772,160.540115 78.611534,161.633728 
	C78.725311,164.424179 78.800949,167.218353 79.070351,169.993698 
	C79.083237,170.126465 81.511375,170.374878 81.624550,170.092484 
	C82.540916,167.805847 83.172447,165.405060 84.023689,162.617905 
	C84.023689,162.617905 84.094124,162.181915 84.626526,162.014984 
	C85.350731,163.371353 86.074944,164.727737 86.929230,166.915558 
	C87.195839,168.280655 87.462448,169.645767 87.640648,171.746262 
	C88.109749,174.156815 88.578850,176.567383 89.001884,179.678421 
	C89.080994,180.138245 89.160095,180.598053 89.177238,181.853806 
	C89.795128,184.896484 90.413025,187.939148 90.976799,191.767471 
	C91.099983,192.542191 91.223160,193.316925 91.210571,194.934677 
	C93.468491,210.252289 91.293373,225.030701 85.870483,239.433411 
	C84.179199,243.925308 82.646782,248.476990 80.873077,253.326096 
	C80.873077,253.326096 80.865501,253.691940 80.408531,254.234924 
	C79.376961,257.157562 78.345390,260.080200 77.011414,263.699219 
	C76.669510,265.152649 76.327614,266.606079 75.847603,268.192078 
	C75.847603,268.192078 75.941322,268.528503 75.640442,269.401764 
	C75.451965,270.610718 75.263496,271.819702 74.725868,273.664062 
	C74.543503,275.096893 74.361145,276.529724 74.037933,278.724579 
	C74.059059,279.496674 74.080185,280.268768 73.933350,281.763214 
	C73.407898,288.316650 73.937889,288.833954 80.112747,287.163422 
	C80.736572,286.978577 81.360397,286.793732 82.677719,286.624054 
	C84.391403,286.056885 86.105087,285.489716 87.916695,284.978241 
	C87.916695,284.978241 87.986900,284.890137 88.608536,284.847961 
	C88.930984,284.599518 89.253426,284.351074 90.190613,284.230377 
	C90.789558,284.062103 91.388504,283.893799 92.663177,283.681793 
	C93.745842,283.353363 94.828506,283.024963 96.823463,282.747955 
	C98.023293,282.562683 99.223114,282.377441 100.939369,282.411377 
	C101.482094,282.340546 102.024818,282.269745 103.303001,282.501617 
	C104.072304,282.699524 104.841606,282.897430 105.942505,283.629303 
	C106.262741,283.897797 106.582977,284.166260 106.922707,284.771179 
	C106.922707,284.771179 107.106720,285.053467 107.185440,285.930145 
	C107.497421,289.271698 107.809402,292.613220 108.084114,296.648224 
	C108.203072,297.093506 108.322021,297.538757 108.365913,298.680847 
	C108.932854,300.391571 109.499802,302.102325 110.016685,303.916565 
	C110.016685,303.916565 110.117577,303.971741 110.185509,304.614685 
	C111.080017,305.839996 111.974525,307.065308 113.068726,309.017670 
	C113.325737,309.447601 113.582756,309.877563 113.757637,310.492828 
	C113.757637,310.492828 114.044792,310.742432 114.030563,310.896454 
	C114.030563,310.896454 114.156601,310.986053 114.189041,311.917511 
	C114.197685,314.366852 113.873253,316.875793 114.298073,319.250702 
	C114.847305,322.321136 115.994881,325.284576 117.050583,328.676880 
	C117.221672,328.916962 117.452599,329.061310 118.149559,329.590149 
	C119.102791,329.960480 120.056015,330.330780 121.317284,330.959412 
	C121.317284,330.959412 121.705238,331.064728 121.968414,331.823547 
	C121.192177,335.222534 120.415932,338.621552 119.298180,342.839478 
	C119.262070,344.901123 119.225960,346.962738 119.146568,349.496460 
	C119.146568,349.496460 119.292252,349.947601 119.342209,350.779785 
	C119.521248,351.304321 119.700287,351.828827 119.766388,352.532379 
	C119.766388,352.532379 120.037086,352.822052 119.993874,352.925629 
	C119.993874,352.925629 120.096382,352.971344 120.099480,353.669678 
	C120.671005,354.938232 121.242531,356.206757 121.902344,358.145966 
	C127.585770,368.699066 134.137253,372.569641 145.846298,370.972290 
	C152.712158,370.035645 159.499344,368.091400 166.135788,366.007568 
	C175.508286,363.064697 178.084167,364.280731 179.872299,374.034119 
	C181.132278,380.906647 181.944351,387.860474 183.154068,394.743225 
	C187.777802,421.050232 206.598572,436.627014 233.248932,437.177521 
	C252.042816,437.565796 269.355408,432.059540 286.580505,425.657867 
	C289.819489,424.454132 290.333099,422.360199 289.313568,419.327972 
	C287.297852,413.332672 285.226105,407.345917 283.511749,401.261444 
	C277.259369,379.070831 274.579010,356.558319 278.083435,333.582672 
	C281.175232,313.312012 290.025848,295.259918 299.634430,277.455841 
	C310.545776,257.237823 321.642609,237.105835 325.616577,213.972961 
	C331.625305,178.995590 327.108215,145.907089 308.234375,115.459396 
	C293.296631,91.361534 272.371704,75.138931 243.852478,70.846161 
	C203.040771,64.703102 164.599960,73.038368 128.709473,92.730812 
	C113.105881,101.292213 99.850174,112.999443 90.489151,129.295349 
	C90.277153,129.852158 90.065147,130.408981 89.943352,130.962616 
	C89.943352,130.962616 89.937744,130.872528 89.545174,131.114197 
M640.951660,334.687561 
	C640.951660,330.089111 640.951660,325.490662 640.951660,320.892212 
	C640.324707,320.917358 639.697693,320.942535 639.070740,320.967682 
	C639.070740,332.163208 639.070740,343.358765 639.070740,354.554291 
	C639.684814,354.571869 640.298950,354.589478 640.913025,354.607056 
	C640.913025,348.459839 640.913025,342.312653 641.633423,336.396729 
	C648.465820,342.461731 653.924561,350.107544 662.233215,354.530548 
	C659.013489,350.025299 655.189636,346.159485 651.362854,342.296539 
	C646.096008,336.979858 646.214661,335.832092 651.738098,330.740234 
	C654.894409,327.830627 657.753967,324.599152 660.747131,321.512604 
	C660.242493,321.005798 659.737854,320.498993 659.233215,319.992218 
	C656.337463,322.756256 653.546570,325.641968 650.516846,328.250366 
	C647.438110,330.900940 644.123840,333.278015 640.951660,334.687561 
M480.247070,332.436523 
	C483.683105,334.557587 487.045776,336.812347 490.581299,338.752014 
	C492.881195,340.013794 495.805176,340.364380 497.753876,341.968414 
	C499.316010,343.254211 500.933441,346.083893 500.526001,347.734711 
	C500.040649,349.701385 497.597351,352.273712 495.687225,352.573090 
	C491.711609,353.196167 487.526306,352.534058 483.431946,352.311981 
	C482.331451,352.252319 481.248169,351.875641 480.156952,351.644501 
	C484.884155,357.031708 490.566162,356.830444 496.478821,355.162476 
	C500.113403,354.137177 502.833893,352.057709 503.319885,348.101501 
	C503.843842,343.836029 501.999908,340.553864 498.131165,338.758453 
	C495.432648,337.506134 492.547363,336.573212 489.660156,335.828644 
	C484.424835,334.478546 481.312836,331.345795 481.255615,325.676636 
	C486.916077,320.505493 493.554993,322.177582 501.268219,324.138336 
	C493.585754,316.750092 482.983215,318.365234 479.834229,326.544861 
	C479.720764,327.460388 479.607330,328.375946 479.367096,329.803192 
	C479.596802,330.458008 479.826477,331.112823 480.247070,332.436523 
M718.309204,324.308594 
	C713.619141,332.610657 713.544983,341.320068 717.549927,349.612610 
	C718.864441,352.334290 722.809509,354.531464 725.983398,355.411163 
	C729.563171,356.403412 733.629700,355.639679 737.642822,355.639679 
	C738.212952,366.563171 729.052490,363.756470 722.519531,365.549805 
	C732.728210,369.827728 740.225891,365.540680 740.687012,356.049957 
	C740.904663,351.570770 740.734009,347.068054 740.598694,342.580231 
	C740.571228,341.670105 739.912415,340.779053 739.544678,339.879211 
	C738.272949,342.474518 738.544373,344.986969 737.927002,347.257751 
	C737.421265,349.117432 736.248962,351.506042 734.695862,352.251617 
	C726.648560,356.114838 718.464478,351.741913 718.033386,342.797882 
	C717.745911,336.832245 719.480408,330.769165 721.044556,324.427521 
	C724.049194,323.690094 727.027771,322.559448 730.067993,322.357330 
	C732.005066,322.228485 734.033691,323.475983 736.021240,324.106384 
	C735.034241,325.846344 734.054504,327.590454 733.056519,329.324066 
	C732.681580,329.975311 732.264160,330.602112 731.866089,331.240051 
	C732.176636,331.602173 732.487183,331.964325 732.797729,332.326447 
	C735.325195,330.258026 737.915649,328.257416 740.302368,326.037659 
	C740.610229,325.751312 740.091980,324.156006 739.566895,323.461517 
	C735.435425,317.996796 723.048584,318.316284 718.309204,324.308594 
M440.291138,267.674072 
	C449.848633,263.094086 460.037689,259.471222 468.801300,253.688202 
	C479.394836,246.697586 483.437836,235.594894 480.623077,223.038910 
	C477.693420,209.970535 470.061920,200.994568 456.058594,198.767334 
	C454.716614,198.553909 453.445435,197.895508 453.200165,197.810532 
	C454.795044,191.408478 457.413361,185.709137 457.409088,180.011749 
	C457.396332,163.031952 444.692505,151.146576 427.695312,150.950073 
	C414.878937,150.801910 403.304657,155.705215 391.499573,159.663269 
	C383.476135,162.353378 383.454163,162.448898 386.262512,170.278503 
	C392.195038,186.818283 398.326660,203.288101 404.108093,219.880188 
	C409.895905,236.490540 415.414398,253.195862 420.908722,269.906311 
	C421.925323,272.998230 423.403931,273.805511 426.399292,272.644653 
	C430.741150,270.961975 435.167450,269.497314 440.291138,267.674072 
M526.163208,166.444931 
	C540.203491,188.322571 554.243774,210.200211 568.647095,232.643555 
	C566.184814,233.279358 564.940979,233.700516 563.662476,233.915405 
	C549.052490,236.371140 534.423035,238.716782 519.842896,241.336914 
	C518.190308,241.633911 515.503174,243.465790 515.533508,244.521744 
	C515.640930,248.267303 518.653137,246.884155 520.799500,246.539062 
	C532.462463,244.663879 544.122986,242.772278 555.770874,240.806305 
	C562.762085,239.626312 569.728516,238.300201 577.585876,236.880844 
	C558.176025,206.309448 539.285339,176.555817 519.682434,145.680267 
	C510.953430,181.510803 502.616547,215.731918 494.217743,250.207306 
	C498.889771,250.933853 500.236755,248.822815 501.040710,245.490250 
	C506.901062,221.198120 512.848511,196.926926 518.812866,172.660049 
	C519.728333,168.935196 520.872070,165.266449 522.123840,160.811432 
	C523.646118,162.960938 524.681274,164.422623 526.163208,166.444931 
M750.112427,151.513672 
	C736.995239,149.316849 723.890137,147.041153 710.744019,145.034027 
	C709.283569,144.811050 707.589539,146.118179 706.003845,146.715698 
	C707.354431,147.783981 708.575317,149.521454 710.076538,149.812256 
	C720.039612,151.742294 730.067627,153.334885 740.064453,155.094498 
	C745.343628,156.023727 750.602539,157.068268 757.022644,158.277802 
	C733.994690,186.062790 711.812500,212.827255 689.438599,239.823013 
	C690.753723,240.424240 691.178650,240.735458 691.642822,240.813858 
	C710.171448,243.942902 728.695068,247.105347 747.252930,250.051819 
	C748.644836,250.272812 750.284729,248.931763 751.809387,248.316864 
	C750.535522,247.188156 749.404297,245.333618 747.964294,245.050797 
	C739.802307,243.447800 731.559753,242.260056 723.357727,240.854858 
	C715.599915,239.525757 707.858215,238.102768 699.152832,236.550507 
	C722.135864,208.833710 744.362976,182.028473 767.205872,154.480576 
	C761.036865,153.421570 755.998840,152.556717 750.112427,151.513672 
M684.841919,339.355438 
	C684.841919,335.762115 684.841919,332.168823 684.841919,328.575500 
	C685.415100,328.516022 685.988281,328.456512 686.561462,328.397003 
	C692.290710,337.822876 698.020020,347.248718 703.852966,356.845154 
	C707.055725,352.166931 707.382263,324.235901 703.239380,320.639771 
	C703.239380,328.965240 703.239380,337.290680 703.239380,345.616119 
	C702.652283,345.702728 702.065247,345.789307 701.478149,345.875885 
	C700.411926,344.466461 699.242859,343.122437 698.297424,341.636230 
	C694.465576,335.612152 690.772156,329.498779 686.861816,323.526947 
	C685.960876,322.151062 684.403137,321.205200 682.477295,319.450653 
	C682.477295,332.188507 682.477295,343.461578 682.477295,354.734650 
	C683.265625,354.740753 684.053955,354.746857 684.842285,354.752930 
	C684.842285,349.930206 684.842285,345.107452 684.841919,339.355438 
M626.649292,320.668579 
	C626.028198,323.287201 624.990051,325.886993 624.870605,328.528290 
	C624.601074,334.486450 624.785950,340.465118 624.785950,346.435455 
	C623.094055,345.701996 622.362061,344.861450 621.778381,343.928070 
	C617.370544,336.879913 613.055969,329.771881 608.534485,322.797821 
	C607.859436,321.756622 606.254639,321.318237 605.079956,320.600952 
	C604.568176,321.720551 603.607605,322.843201 603.615234,323.959198 
	C603.678833,333.255402 603.893066,342.551117 604.152527,351.844482 
	C604.178101,352.760651 604.809570,353.659943 605.159790,354.567078 
	C605.713440,354.508850 606.267090,354.450653 606.820740,354.392426 
	C606.820740,348.177582 606.708069,341.959290 606.898438,335.750275 
	C606.947205,334.158966 607.953186,332.597015 608.519409,331.021606 
	C609.685608,332.056244 611.169434,332.891907 611.963745,334.159546 
	C615.666199,340.067993 619.078430,346.159515 622.833923,352.032440 
	C623.687866,353.367828 625.494019,354.094269 626.861877,355.100983 
	C627.368164,353.507111 628.265869,351.922180 628.302673,350.317535 
	C628.389954,346.504028 628.058472,342.681549 627.916565,338.861938 
	C627.695679,332.914459 627.491638,326.966339 626.649292,320.668579 
M568.565247,338.029816 
	C578.871033,338.142426 577.859253,336.836212 578.005371,347.354004 
	C578.039246,349.788818 578.287292,352.220642 578.436768,354.653839 
	C578.947510,354.615265 579.458313,354.576691 579.969055,354.538147 
	C579.969055,343.335785 579.969055,332.133423 579.969055,320.931061 
	C579.442627,320.907623 578.916260,320.884186 578.389832,320.860748 
	C578.254333,322.538086 578.027710,324.213776 577.997925,325.893005 
	C577.793213,337.442963 579.188477,335.700928 567.722961,335.827332 
	C561.006470,335.901398 561.034790,335.824127 560.946777,328.890930 
	C560.912720,326.207520 560.713379,323.526184 560.589294,320.843903 
	C560.055664,320.890411 559.522095,320.936920 558.988464,320.983398 
	C558.988464,332.171600 558.988464,343.359802 558.988464,355.388336 
	C560.018860,354.263245 560.594177,353.930328 560.615234,353.565369 
	C560.787964,350.583313 560.914612,347.595825 560.946228,344.608856 
	C561.014893,338.127502 560.988464,338.127228 568.565247,338.029816 
M536.988647,331.610962 
	C537.559143,339.299591 535.901245,347.157013 538.750977,354.794434 
	C539.847473,353.255310 540.451477,351.656860 540.436890,350.064087 
	C540.371521,342.928528 540.206543,335.791534 539.922607,328.661255 
	C539.760803,324.598846 541.684509,322.920837 545.559509,322.851532 
	C547.725159,322.812775 549.886414,322.524567 552.049622,322.348785 
	C552.015625,321.839966 551.981689,321.331146 551.947693,320.822357 
	C543.095642,319.479187 534.242920,318.560791 525.299377,321.613068 
	C526.482422,322.577362 527.751282,323.099945 529.007629,323.071381 
	C536.970154,322.890198 536.969238,322.849976 536.988647,331.610962 
M671.196838,354.122467 
	C672.053345,343.045685 671.710571,332.005676 670.618591,320.919250 
	C669.565552,321.584503 669.127869,322.294250 669.120239,323.008575 
	C669.013489,332.989624 668.936462,342.971405 668.979553,352.952484 
	C668.981995,353.515381 670.089111,354.073517 671.196838,354.122467 
M591.068298,324.999084 
	C591.068298,334.805450 591.068298,344.611847 591.068298,354.418213 
	C591.692810,354.411865 592.317261,354.405487 592.941772,354.399109 
	C592.941772,343.270966 592.941772,332.142792 592.941772,321.014648 
	C592.560852,320.956604 592.179993,320.898590 591.799072,320.840546 
	C591.557251,321.945068 591.315369,323.049561 591.068298,324.999084 
M467.839661,342.478241 
	C467.839661,346.365082 467.839661,350.251953 467.839661,354.138794 
	C468.372986,354.116302 468.906311,354.093781 469.439636,354.071289 
	C469.439636,340.738281 469.439636,327.405243 469.439636,314.072235 
	C468.906982,314.065826 468.374298,314.059418 467.841644,314.052979 
	C467.841644,323.196747 467.841644,332.340485 467.839661,342.478241 
z"/>
<path fill="#FEF9ED" opacity="1.000000" stroke="none" 
	d="
M75.985703,268.059509 
	C76.327614,266.606079 76.669510,265.152649 77.466034,263.214630 
	C78.902267,259.717346 79.883881,256.704651 80.865494,253.691940 
	C80.865501,253.691940 80.873077,253.326096 81.294090,253.320023 
	C82.230690,254.681686 82.746277,256.049438 83.237106,257.781403 
	C82.693596,259.790955 82.174850,261.436249 81.521484,263.278442 
	C81.233597,263.762665 81.141335,264.068451 81.116745,264.673645 
	C81.028824,265.316101 80.934227,265.677643 80.676903,266.275665 
	C80.380081,266.871674 80.245979,267.231201 80.203064,267.887268 
	C80.190353,268.791473 80.086456,269.399109 79.647217,270.166626 
	C77.322075,273.335144 77.131210,276.256836 80.201279,279.083710 
	C87.770630,278.327057 94.891922,277.677917 101.968086,276.701630 
	C114.972527,274.907379 113.992493,273.622803 113.763115,287.194916 
	C113.671547,292.612885 114.370323,299.156342 117.373657,303.216736 
	C120.695335,307.707458 123.077789,312.279846 125.078468,317.287933 
	C126.004951,319.607086 126.437325,322.523315 128.110413,324.066864 
	C132.495056,328.112061 130.697250,331.644043 128.625778,335.908752 
	C123.572960,346.311432 125.632553,355.538788 133.954010,361.132538 
	C140.543427,365.561951 147.825394,365.614258 155.085022,363.422821 
	C160.321991,361.841980 165.272690,359.331055 170.479492,357.627563 
	C177.946609,355.184540 182.828217,357.689941 185.031097,365.250824 
	C186.183304,369.205597 186.909821,373.403931 187.034485,377.516327 
	C187.425629,390.418762 189.806488,402.657990 197.391968,413.442230 
	C205.175720,424.508423 215.700363,430.502472 229.342178,431.091339 
	C245.750366,431.799652 261.453430,428.760773 276.802002,423.132263 
	C280.259338,421.864410 281.778290,420.131195 281.058350,416.555786 
	C279.284760,407.747498 277.950348,398.821381 275.637817,390.156555 
	C269.236816,366.172028 270.096558,342.462799 276.677246,318.659241 
	C281.924011,299.680878 291.314697,282.617859 300.126556,265.251526 
	C311.746796,242.350403 320.509766,218.560776 322.167755,192.636475 
	C323.526062,171.398041 319.325134,151.152924 310.446991,131.942734 
	C294.449554,97.328209 268.291565,77.082924 229.289932,74.886253 
	C206.045197,73.577065 183.308884,76.024055 161.341003,83.582993 
	C138.160278,91.559250 117.725464,103.826584 101.661629,123.000298 
	C93.234314,133.059097 90.265007,144.134842 91.297691,156.745773 
	C91.841026,163.380875 92.522797,170.004654 93.105545,177.081085 
	C93.682198,180.343109 94.295357,183.157562 94.993950,186.298187 
	C95.097244,187.294800 95.115112,187.965256 95.094627,189.108093 
	C95.564873,192.725739 96.073463,195.871002 96.679367,199.408234 
	C96.800529,200.873642 96.824402,201.947098 96.766815,203.132172 
	C96.592888,203.529816 96.660294,203.776505 96.952026,204.447632 
	C96.846413,209.599640 96.676369,214.287842 96.302765,219.069489 
	C96.069923,219.774002 96.040634,220.385071 96.021408,221.346481 
	C95.934464,222.152145 95.837448,222.607498 95.590286,223.278442 
	C95.330345,223.828964 95.220558,224.163849 95.153801,224.623474 
	C95.196831,224.748199 95.083031,224.986328 94.912979,225.141281 
	C94.755592,225.849411 94.768257,226.402603 94.745590,227.365570 
	C94.531242,228.292374 94.352211,228.809387 94.134781,229.429443 
	C94.096390,229.532486 94.015762,229.967896 94.027924,229.988190 
	C94.040085,230.008484 93.996246,230.026291 93.793213,230.275970 
	C93.443039,231.147644 93.295914,231.769623 93.141022,232.639114 
	C92.946747,233.340897 92.760223,233.795166 92.200539,234.104828 
	C91.367447,232.375977 90.383888,230.732483 90.555145,229.219711 
	C90.926765,225.937241 91.976517,222.738174 92.591988,219.475388 
	C94.205101,210.923965 94.098930,202.437988 91.346344,194.091644 
	C91.223160,193.316925 91.099983,192.542191 91.190132,191.087769 
	C90.682045,187.291351 89.960625,184.174606 89.239204,181.057877 
	C89.160095,180.598053 89.080994,180.138245 89.178955,179.045898 
	C88.813705,175.945877 88.271385,173.478378 87.729065,171.010864 
	C87.462448,169.645767 87.195839,168.280655 87.099312,166.211243 
	C87.396980,164.265106 87.834618,162.946655 87.552681,161.806061 
	C87.332657,160.915878 86.218628,160.246643 85.501869,159.479233 
	C85.032616,160.380127 84.563370,161.281021 84.094124,162.181915 
	C84.094124,162.181915 84.023689,162.617905 83.769730,163.107513 
	C82.496147,164.828110 81.476517,166.059113 80.456894,167.290100 
	C80.126144,165.812180 79.802948,164.332489 79.461098,162.857147 
	C79.316360,162.232498 79.132408,161.616943 78.966286,160.997253 
	C78.969772,160.540115 78.973267,160.082962 79.282791,159.033066 
	C81.100464,153.060898 82.612091,147.681503 84.123718,142.302094 
	C84.123718,142.302094 84.109993,142.131454 84.326958,141.890869 
	C84.726234,141.380798 84.851273,141.086929 84.919052,140.768661 
	C84.919052,140.768661 84.956604,140.362503 85.387375,140.082031 
	C86.497597,138.150070 87.177048,136.498611 87.856506,134.847137 
	C87.856506,134.847137 87.898445,134.925217 88.093140,134.727722 
	C88.492264,133.941055 88.696686,133.351883 88.901115,132.762711 
	C88.901115,132.762711 88.981522,132.327805 89.249817,131.983917 
	C89.707115,131.411057 89.846992,131.155228 89.937744,130.872528 
	C89.937744,130.872528 89.943352,130.962616 90.123131,130.760925 
	C90.518730,130.006897 90.734550,129.454575 90.950378,128.902237 
	C99.850174,112.999443 113.105881,101.292213 128.709473,92.730812 
	C164.599960,73.038368 203.040771,64.703102 243.852478,70.846161 
	C272.371704,75.138931 293.296631,91.361534 308.234375,115.459396 
	C327.108215,145.907089 331.625305,178.995590 325.616577,213.972961 
	C321.642609,237.105835 310.545776,257.237823 299.634430,277.455841 
	C290.025848,295.259918 281.175232,313.312012 278.083435,333.582672 
	C274.579010,356.558319 277.259369,379.070831 283.511749,401.261444 
	C285.226105,407.345917 287.297852,413.332672 289.313568,419.327972 
	C290.333099,422.360199 289.819489,424.454132 286.580505,425.657867 
	C269.355408,432.059540 252.042816,437.565796 233.248932,437.177521 
	C206.598572,436.627014 187.777802,421.050232 183.154068,394.743225 
	C181.944351,387.860474 181.132278,380.906647 179.872299,374.034119 
	C178.084167,364.280731 175.508286,363.064697 166.135788,366.007568 
	C159.499344,368.091400 152.712158,370.035645 145.846298,370.972290 
	C134.137253,372.569641 127.585770,368.699066 121.893211,357.415894 
	C121.288177,355.447662 120.692276,354.209503 120.096375,352.971344 
	C120.096382,352.971344 119.993874,352.925629 119.994690,352.793518 
	C119.995499,352.661438 119.879333,352.353363 119.879333,352.353363 
	C119.700287,351.828827 119.521248,351.304321 119.382614,350.250671 
	C119.483925,349.446381 119.406204,349.213989 119.189850,349.024384 
	C119.225960,346.962738 119.262070,344.901123 119.751968,342.295837 
	C121.851219,338.350433 125.594498,335.243011 121.705238,331.064728 
	C121.705238,331.064728 121.317284,330.959412 121.017174,330.542206 
	C119.725830,329.786652 118.734596,329.448303 117.743362,329.109985 
	C117.452599,329.061310 117.221672,328.916962 116.932343,328.086243 
	C116.520752,324.130554 116.371994,320.744232 115.882568,317.407928 
	C115.563049,315.229767 114.749092,313.124146 114.156601,310.986053 
	C114.156601,310.986053 114.030563,310.896454 114.006912,310.744751 
	C113.983253,310.593048 113.839767,310.307495 113.839767,310.307495 
	C113.582756,309.877563 113.325737,309.447601 112.984436,308.284302 
	C111.972626,306.357880 111.045105,305.164795 110.117577,303.971741 
	C110.117577,303.971741 110.016685,303.916565 110.039024,303.494446 
	C109.521233,301.376251 108.981102,299.680145 108.440971,297.984039 
	C108.322021,297.538757 108.203072,297.093506 108.294968,295.970428 
	C108.039452,291.879578 107.573090,288.466522 107.106720,285.053467 
	C107.106720,285.053467 106.922707,284.771179 106.759430,284.323303 
	C106.267731,283.615417 105.939316,283.355377 105.610901,283.095337 
	C104.841606,282.897430 104.072304,282.699524 102.764816,282.301666 
	C101.625397,282.131866 101.024170,282.161987 100.422943,282.192139 
	C99.223114,282.377441 98.023293,282.562683 96.102798,282.580017 
	C94.250565,282.849915 93.119011,283.287720 91.987457,283.725525 
	C91.388504,283.893799 90.789558,284.062103 89.598282,284.259399 
	C88.666267,284.489014 88.326584,284.689575 87.986908,284.890137 
	C87.986900,284.890137 87.916695,284.978241 87.494736,284.954163 
	C85.376595,285.489655 83.680412,286.049286 81.984230,286.608917 
	C81.360397,286.793732 80.736572,286.978577 79.364288,287.114441 
	C74.095772,287.316711 75.626656,283.033691 74.101311,281.040863 
	C74.080185,280.268768 74.059059,279.496674 74.358597,278.146606 
	C74.811180,276.055328 74.943100,274.541992 75.075027,273.028656 
	C75.263496,271.819702 75.451965,270.610718 75.806168,268.889465 
	C75.971893,268.377197 75.985703,268.059509 75.985703,268.059509 
M86.499130,156.528152 
	C86.499130,156.528152 86.485023,156.488388 86.499130,156.528152 
z"/>
<path fill="#FEF9EA" opacity="1.000000" stroke="none" 
	d="
M644.296692,164.161530 
	C651.057617,157.270950 657.812073,150.374054 664.585510,143.495834 
	C665.752319,142.311020 666.875854,141.023926 668.233887,140.098984 
	C671.646790,137.774475 673.943665,138.904053 674.044189,143.054001 
	C674.330627,154.874069 674.530884,166.697083 674.652100,178.520096 
	C674.831421,196.006363 674.794250,213.495834 675.119751,230.978912 
	C675.201416,235.367966 674.204956,237.080246 669.384521,237.045914 
	C649.568176,236.904724 629.748962,237.206985 609.930542,237.299500 
	C608.471191,237.306305 606.914490,237.174515 605.599915,236.630951 
	C605.117126,236.431320 604.763367,234.275208 605.114075,234.005981 
	C606.268921,233.119385 607.765808,232.180161 609.144287,232.160309 
	C623.298767,231.956467 637.455933,231.944199 651.612061,231.845093 
	C655.773499,231.815964 659.943481,231.470474 664.092590,231.653519 
	C668.251648,231.837006 669.586670,230.165192 669.523621,226.073792 
	C669.228638,206.923828 669.155762,187.770309 669.032043,168.617874 
	C668.988037,161.813828 669.024963,155.009247 669.024963,148.524155 
	C656.618774,160.477386 644.268982,172.376236 631.596375,184.586197 
	C619.296509,172.637390 607.195801,160.882019 594.088928,148.149246 
	C593.788513,151.328751 593.445801,153.179947 593.464233,155.027542 
	C593.725037,181.172501 594.070190,207.316757 594.231812,233.462173 
	C594.240173,234.809280 593.005798,237.080811 591.957886,237.340652 
	C589.150574,238.036743 588.917114,235.733902 588.899780,233.571335 
	C588.657898,203.428131 588.395203,173.285095 588.162659,143.141815 
	C588.156372,142.328262 588.429932,141.512527 589.184021,140.398834 
	C592.605835,141.537643 595.416565,142.975418 598.227356,144.413208 
	C598.227356,144.413208 598.328796,144.596603 598.526489,144.847900 
	C599.119263,145.429504 599.514221,145.759811 599.909241,146.090118 
	C599.909241,146.090134 599.991150,146.070145 600.046631,146.308609 
	C600.383789,146.742935 600.665405,146.938797 600.947021,147.134644 
	C602.764221,148.974503 604.581360,150.814362 606.772461,153.068604 
	C607.425903,153.666077 607.705505,153.849197 607.985168,154.032318 
	C607.985168,154.032303 607.999512,153.997543 608.098877,154.263123 
	C608.651978,154.824463 609.105591,155.120224 609.559265,155.416000 
	C609.559265,155.416000 609.515808,155.532776 609.695923,155.842316 
	C611.404541,157.556351 612.933044,158.960831 614.461548,160.365295 
	C614.461548,160.365311 614.526001,160.441528 614.666992,160.673248 
	C615.220154,161.253098 615.632324,161.601212 616.044556,161.949310 
	C616.044556,161.949310 616.000000,161.999390 616.146606,162.231354 
	C616.759094,162.757477 617.224976,163.051620 617.690857,163.345779 
	C617.690857,163.345779 617.663940,163.235977 617.783813,163.497375 
	C618.089478,164.026749 618.340576,164.200623 618.656799,164.280426 
	C618.656799,164.280426 618.676514,164.315903 618.778931,164.545288 
	C619.065063,165.042969 619.314697,165.216415 619.630249,165.294968 
	C619.630249,165.294968 619.636475,165.359695 619.762024,165.574371 
	C620.071533,166.051468 620.319214,166.220612 620.630554,166.296463 
	C620.630554,166.296463 620.639587,166.362045 620.773193,166.578781 
	C621.101990,167.063629 621.363098,167.225708 621.690063,167.281769 
	C621.690063,167.281769 621.644958,167.345642 621.798462,167.664673 
	C623.650146,169.636963 625.348389,171.290207 627.046570,172.943481 
	C627.046570,172.943481 627.000183,172.999161 627.165649,173.265289 
	C628.240845,175.302536 629.150574,177.073654 630.060303,178.844772 
	C630.765808,178.345474 631.471252,177.846191 632.176758,177.346893 
	C634.564758,174.641861 636.952759,171.936844 639.340759,169.231827 
	C639.856506,168.728790 640.372253,168.225739 641.308960,167.378113 
	C642.224731,166.430756 642.719482,165.827988 643.214233,165.225220 
	C643.214294,165.225235 643.221375,165.157700 643.438660,165.074524 
	C643.869507,164.714737 644.083130,164.438141 644.296692,164.161530 
z"/>
<path fill="#FEF8EA" opacity="1.000000" stroke="none" 
	d="
M439.924438,267.806854 
	C435.167450,269.497314 430.741150,270.961975 426.399292,272.644653 
	C423.403931,273.805511 421.925323,272.998230 420.908722,269.906311 
	C415.414398,253.195862 409.895905,236.490540 404.108093,219.880188 
	C398.326660,203.288101 392.195038,186.818283 386.262512,170.278503 
	C383.454163,162.448898 383.476135,162.353378 391.499573,159.663269 
	C403.304657,155.705215 414.878937,150.801910 427.695312,150.950073 
	C444.692505,151.146576 457.396332,163.031952 457.409088,180.011749 
	C457.413361,185.709137 454.795044,191.408478 453.200165,197.810532 
	C453.445435,197.895508 454.716614,198.553909 456.058594,198.767334 
	C470.061920,200.994568 477.693420,209.970535 480.623077,223.038910 
	C483.437836,235.594894 479.394836,246.697586 468.801300,253.688202 
	C460.037689,259.471222 449.848633,263.094086 439.924438,267.806854 
M405.553253,210.810898 
	C407.450012,215.680466 409.469788,220.506302 411.219299,225.428223 
	C415.623474,237.818390 419.906067,250.251801 424.236633,262.668121 
	C424.961731,264.747101 425.521149,267.018250 428.620758,265.963654 
	C441.059418,261.731598 453.865601,258.302429 464.734344,250.477936 
	C474.873901,243.178436 478.318024,233.014099 474.835938,221.570831 
	C471.377014,210.203583 463.321655,204.235321 450.594635,203.719360 
	C447.343781,203.587585 444.083008,203.699600 439.418091,203.699600 
	C442.921265,199.376038 445.535675,196.425674 447.844025,193.252701 
	C457.866394,179.476425 449.496521,159.231155 432.688171,156.647614 
	C418.328827,154.440521 405.589661,160.478027 392.608276,165.013657 
	C391.883575,165.266861 391.349701,167.849823 391.698090,169.071472 
	C392.974609,173.547684 394.710480,177.890549 396.184540,182.313263 
	C399.282776,191.609070 402.324707,200.923676 405.553253,210.810898 
z"/>
<path fill="#FEF8E8" opacity="1.000000" stroke="none" 
	d="
M797.932861,246.556503 
	C797.784973,246.871155 797.637085,247.185822 797.516968,248.127838 
	C797.764587,249.938171 797.984436,251.121155 798.431152,253.525330 
	C800.919067,250.492996 802.713745,248.305557 804.508484,246.118134 
	C804.738464,246.067078 804.905029,245.935638 805.294922,245.397766 
	C805.759399,244.718506 805.937195,244.365280 806.115051,244.012054 
	C806.115051,244.012070 806.015198,244.021942 806.278076,243.981735 
	C806.718445,243.633224 806.895935,243.324921 807.073486,243.016602 
	C807.073425,243.016586 807.008728,243.009323 807.255981,242.946777 
	C807.681152,242.596268 807.859070,242.308319 808.036987,242.020355 
	C808.036987,242.020355 807.999390,241.998627 808.224670,241.911346 
	C808.706543,241.610474 808.864502,241.339386 808.923767,241.010803 
	C808.923767,241.010803 808.994751,241.005142 809.279175,240.828690 
	C810.751709,239.133484 811.939819,237.614731 813.127991,236.095978 
	C813.127991,236.095978 813.043701,236.028717 813.363892,235.927917 
	C814.864868,234.274185 816.045532,232.721268 817.226196,231.168335 
	C817.226196,231.168335 817.149841,231.054977 817.370300,231.025040 
	C817.765930,230.672028 817.941101,230.348953 818.116333,230.025879 
	C818.116333,230.025894 818.058044,230.092560 818.392761,229.984543 
	C819.922974,228.341904 821.118469,226.807266 822.313904,225.272644 
	C822.313904,225.272629 822.312927,225.192795 822.546143,225.009293 
	C833.562561,212.756165 844.345703,200.686554 855.910889,187.741608 
	C849.443237,185.858322 844.242554,184.343933 838.829224,182.644379 
	C836.058716,181.679932 833.500793,180.900635 830.600464,179.966797 
	C825.878784,178.482651 821.499451,177.153061 817.120056,175.823471 
	C817.120056,175.823471 817.060730,175.858749 816.866333,175.598389 
	C814.814880,174.825104 812.957886,174.312164 811.100830,173.799225 
	C811.100830,173.799210 811.051270,173.855362 810.831726,173.615997 
	C807.775146,172.533600 804.938171,171.690567 802.101135,170.847519 
	C802.101135,170.847519 802.024475,170.908524 801.954102,170.697372 
	C801.597595,170.274918 801.311462,170.063614 801.025391,169.852310 
	C801.107178,169.182755 801.188904,168.513184 801.474365,167.299377 
	C801.930298,166.216324 802.182434,165.677490 802.434570,165.138672 
	C822.829041,171.785645 843.223511,178.432602 864.465332,185.355728 
	C861.915405,188.432648 859.980408,190.858215 857.951172,193.202103 
	C838.758728,215.369843 819.526794,237.503448 800.392822,259.721527 
	C798.925476,261.425415 797.794434,263.585724 797.057495,265.723633 
	C793.431458,276.243683 789.991211,286.827789 786.465027,297.450562 
	C782.448669,297.425110 781.433228,295.861816 782.626343,292.411133 
	C784.638916,286.589905 785.963440,280.479126 788.472961,274.892456 
	C793.191406,264.388397 792.771851,253.694290 791.684021,242.620483 
	C789.143738,216.760361 787.129822,190.848419 784.932556,164.954941 
	C784.795105,163.334564 784.914734,161.692398 784.914734,159.944427 
	C788.797363,159.648590 789.970154,161.532349 790.244995,164.932648 
	C791.735046,183.366043 793.373779,201.787415 794.969849,220.212204 
	C795.170959,222.533966 795.422668,224.851349 795.725281,228.012512 
	C796.148682,231.935501 796.497925,235.016724 796.847168,238.097946 
	C796.829651,238.522949 796.812134,238.947968 796.842651,240.099213 
	C797.238037,242.735809 797.585449,244.646164 797.932861,246.556503 
z"/>
<path fill="#FEF8E9" opacity="1.000000" stroke="none" 
	d="
M525.939819,166.164612 
	C524.681274,164.422623 523.646118,162.960938 522.123840,160.811432 
	C520.872070,165.266449 519.728333,168.935196 518.812866,172.660049 
	C512.848511,196.926926 506.901062,221.198120 501.040710,245.490250 
	C500.236755,248.822815 498.889771,250.933853 494.217743,250.207306 
	C502.616547,215.731918 510.953430,181.510803 519.682434,145.680267 
	C539.285339,176.555817 558.176025,206.309448 577.585876,236.880844 
	C569.728516,238.300201 562.762085,239.626312 555.770874,240.806305 
	C544.122986,242.772278 532.462463,244.663879 520.799500,246.539062 
	C518.653137,246.884155 515.640930,248.267303 515.533508,244.521744 
	C515.503174,243.465790 518.190308,241.633911 519.842896,241.336914 
	C534.423035,238.716782 549.052490,236.371140 563.662476,233.915405 
	C564.940979,233.700516 566.184814,233.279358 568.647095,232.643555 
	C554.243774,210.200211 540.203491,188.322571 525.939819,166.164612 
z"/>
<path fill="#FEF8E9" opacity="1.000000" stroke="none" 
	d="
M750.536621,151.602768 
	C755.998840,152.556717 761.036865,153.421570 767.205872,154.480576 
	C744.362976,182.028473 722.135864,208.833710 699.152832,236.550507 
	C707.858215,238.102768 715.599915,239.525757 723.357727,240.854858 
	C731.559753,242.260056 739.802307,243.447800 747.964294,245.050797 
	C749.404297,245.333618 750.535522,247.188156 751.809387,248.316864 
	C750.284729,248.931763 748.644836,250.272812 747.252930,250.051819 
	C728.695068,247.105347 710.171448,243.942902 691.642822,240.813858 
	C691.178650,240.735458 690.753723,240.424240 689.438599,239.823013 
	C711.812500,212.827255 733.994690,186.062790 757.022644,158.277802 
	C750.602539,157.068268 745.343628,156.023727 740.064453,155.094498 
	C730.067627,153.334885 720.039612,151.742294 710.076538,149.812256 
	C708.575317,149.521454 707.354431,147.783981 706.003845,146.715698 
	C707.589539,146.118179 709.283569,144.811050 710.744019,145.034027 
	C723.890137,147.041153 736.995239,149.316849 750.536621,151.602768 
z"/>
<path fill="#E7AA57" opacity="1.000000" stroke="none" 
	d="
M839.041809,182.829559 
	C844.242554,184.343933 849.443237,185.858322 855.910889,187.741608 
	C844.345703,200.686554 833.562561,212.756165 822.506226,225.008194 
	C822.563965,223.288803 822.894836,221.387009 823.252075,219.333755 
	C813.244385,211.689468 812.588928,206.519485 820.520386,193.933395 
	C816.049927,191.985214 815.529053,188.580292 816.763184,184.190399 
	C817.415466,181.870087 816.994812,179.248123 817.089355,176.292908 
	C821.499451,177.153061 825.878784,178.482651 830.335815,180.142944 
	C829.782104,180.611847 829.048828,180.593277 828.542236,180.923065 
	C827.671631,181.489853 826.942383,182.273926 826.153748,182.966751 
	C827.186401,183.332809 828.199829,183.927368 829.255859,184.016403 
	C831.324402,184.190796 833.430542,184.230621 835.493896,184.036530 
	C836.703674,183.922729 837.860901,183.250565 839.041809,182.829559 
z"/>
<path fill="#F9E2B6" opacity="1.000000" stroke="none" 
	d="
M684.842102,339.820068 
	C684.842285,345.107452 684.842285,349.930206 684.842285,354.752930 
	C684.053955,354.746857 683.265625,354.740753 682.477295,354.734650 
	C682.477295,343.461578 682.477295,332.188507 682.477295,319.450653 
	C684.403137,321.205200 685.960876,322.151062 686.861816,323.526947 
	C690.772156,329.498779 694.465576,335.612152 698.297424,341.636230 
	C699.242859,343.122437 700.411926,344.466461 701.478149,345.875885 
	C702.065247,345.789307 702.652283,345.702728 703.239380,345.616119 
	C703.239380,337.290680 703.239380,328.965240 703.239380,320.639771 
	C707.382263,324.235901 707.055725,352.166931 703.852966,356.845154 
	C698.020020,347.248718 692.290710,337.822876 686.561462,328.397003 
	C685.988281,328.456512 685.415100,328.516022 684.841919,328.575500 
	C684.841919,332.168823 684.841919,335.762115 684.842102,339.820068 
z"/>
<path fill="#F9E2B6" opacity="1.000000" stroke="none" 
	d="
M626.964844,320.843536 
	C627.491638,326.966339 627.695679,332.914459 627.916565,338.861938 
	C628.058472,342.681549 628.389954,346.504028 628.302673,350.317535 
	C628.265869,351.922180 627.368164,353.507111 626.861877,355.100952 
	C625.494019,354.094269 623.687866,353.367828 622.833923,352.032440 
	C619.078430,346.159515 615.666199,340.067993 611.963745,334.159546 
	C611.169434,332.891907 609.685608,332.056244 608.519409,331.021606 
	C607.953186,332.597015 606.947205,334.158966 606.898438,335.750275 
	C606.708069,341.959290 606.820740,348.177582 606.820740,354.392426 
	C606.267090,354.450653 605.713440,354.508850 605.159790,354.567078 
	C604.809570,353.659943 604.178101,352.760651 604.152527,351.844482 
	C603.893066,342.551117 603.678833,333.255402 603.615234,323.959198 
	C603.607605,322.843201 604.568176,321.720551 605.079956,320.600952 
	C606.254639,321.318237 607.859436,321.756622 608.534485,322.797821 
	C613.055969,329.771881 617.370544,336.879913 621.778381,343.928070 
	C622.362061,344.861450 623.094055,345.701996 624.785950,346.435455 
	C624.785950,340.465118 624.601074,334.486450 624.870605,328.528290 
	C624.990051,325.886993 626.028198,323.287201 626.964844,320.843536 
z"/>
<path fill="#FDEBC4" opacity="1.000000" stroke="none" 
	d="
M720.309998,324.749695 
	C719.480408,330.769165 717.745911,336.832245 718.033386,342.797882 
	C718.464478,351.741913 726.648560,356.114838 734.695862,352.251617 
	C736.248962,351.506042 737.421265,349.117432 737.927002,347.257751 
	C738.544373,344.986969 738.272949,342.474518 739.544678,339.879211 
	C739.912415,340.779053 740.571228,341.670105 740.598694,342.580231 
	C740.734009,347.068054 740.904663,351.570770 740.687012,356.049957 
	C740.225891,365.540680 732.728210,369.827728 722.519531,365.549805 
	C729.052490,363.756470 738.212952,366.563171 737.642822,355.639679 
	C733.629700,355.639679 729.563171,356.403412 725.983398,355.411163 
	C722.809509,354.531464 718.864441,352.334290 717.549927,349.612610 
	C713.544983,341.320068 713.619141,332.610657 718.782471,324.210693 
	C719.607178,324.325104 719.958557,324.537384 720.309998,324.749695 
z"/>
<path fill="#FDEBC4" opacity="1.000000" stroke="none" 
	d="
M568.096680,338.029968 
	C560.988464,338.127228 561.014893,338.127502 560.946228,344.608856 
	C560.914612,347.595825 560.787964,350.583313 560.615234,353.565369 
	C560.594177,353.930328 560.018860,354.263245 558.988464,355.388336 
	C558.988464,343.359802 558.988464,332.171600 558.988464,320.983398 
	C559.522095,320.936920 560.055664,320.890411 560.589294,320.843903 
	C560.713379,323.526184 560.912720,326.207520 560.946777,328.890930 
	C561.034790,335.824127 561.006470,335.901398 567.722961,335.827332 
	C579.188477,335.700928 577.793213,337.442963 577.997925,325.893005 
	C578.027710,324.213776 578.254333,322.538086 578.389832,320.860748 
	C578.916260,320.884186 579.442627,320.907623 579.969055,320.931061 
	C579.969055,332.133423 579.969055,343.335785 579.969055,354.538147 
	C579.458313,354.576691 578.947510,354.615265 578.436768,354.653839 
	C578.287292,352.220642 578.039246,349.788818 578.005371,347.354004 
	C577.859253,336.836212 578.871033,338.142426 568.096680,338.029968 
z"/>
<path fill="#F9E2B6" opacity="1.000000" stroke="none" 
	d="
M536.992004,331.128510 
	C536.969238,322.849976 536.970154,322.890198 529.007629,323.071381 
	C527.751282,323.099945 526.482422,322.577362 525.299377,321.613068 
	C534.242920,318.560791 543.095642,319.479187 551.947693,320.822357 
	C551.981689,321.331146 552.015625,321.839966 552.049622,322.348785 
	C549.886414,322.524567 547.725159,322.812775 545.559509,322.851532 
	C541.684509,322.920837 539.760803,324.598846 539.922607,328.661255 
	C540.206543,335.791534 540.371521,342.928528 540.436890,350.064087 
	C540.451477,351.656860 539.847473,353.255310 538.750977,354.794434 
	C535.901245,347.157013 537.559143,339.299591 536.992004,331.128510 
z"/>
<path fill="#FDEBC4" opacity="1.000000" stroke="none" 
	d="
M479.493866,329.291473 
	C479.607330,328.375946 479.720764,327.460388 480.126831,326.264069 
	C480.419464,325.983276 480.547424,325.957001 480.547424,325.957001 
	C481.312836,331.345795 484.424835,334.478546 489.660156,335.828644 
	C492.547363,336.573212 495.432648,337.506134 498.131165,338.758453 
	C501.999908,340.553864 503.843842,343.836029 503.319885,348.101501 
	C502.833893,352.057709 500.113403,354.137177 496.478821,355.162476 
	C490.566162,356.830444 484.884155,357.031708 480.156952,351.644501 
	C481.248169,351.875641 482.331451,352.252319 483.431946,352.311981 
	C487.526306,352.534058 491.711609,353.196167 495.687225,352.573090 
	C497.597351,352.273712 500.040649,349.701385 500.526001,347.734711 
	C500.933441,346.083893 499.316010,343.254211 497.753876,341.968414 
	C495.805176,340.364380 492.881195,340.013794 490.581299,338.752014 
	C487.045776,336.812347 483.683105,334.557587 480.131744,331.842407 
	C479.842255,330.596008 479.668060,329.943726 479.493866,329.291473 
z"/>
<path fill="#FEF5DE" opacity="1.000000" stroke="none" 
	d="
M83.261871,257.417175 
	C82.746277,256.049438 82.230690,254.681686 81.378372,253.157623 
	C82.646782,248.476990 84.179199,243.925308 85.870483,239.433411 
	C91.293373,225.030701 93.468491,210.252289 91.278458,194.513153 
	C94.098930,202.437988 94.205101,210.923965 92.591988,219.475388 
	C91.976517,222.738174 90.926765,225.937241 90.555145,229.219711 
	C90.383888,230.732483 91.367447,232.375977 92.117798,234.482330 
	C89.359436,242.475372 86.310654,249.946274 83.261871,257.417175 
z"/>
<path fill="#FDEBC0" opacity="1.000000" stroke="none" 
	d="
M640.912720,335.774841 
	C644.123840,333.278015 647.438110,330.900940 650.516846,328.250366 
	C653.546570,325.641968 656.337463,322.756256 659.233215,319.992218 
	C659.737854,320.498993 660.242493,321.005798 660.747131,321.512604 
	C657.753967,324.599152 654.894409,327.830627 651.738098,330.740234 
	C646.214661,335.832092 646.096008,336.979858 651.362854,342.296539 
	C655.189636,346.159485 659.013489,350.025299 662.233215,354.530548 
	C653.924561,350.107544 648.465820,342.461731 641.285706,336.221924 
	C640.937988,336.047089 640.912720,335.774841 640.912720,335.774841 
z"/>
<path fill="#FDEBC0" opacity="1.000000" stroke="none" 
	d="
M720.677246,324.588623 
	C719.958557,324.537384 719.607178,324.325104 719.069092,324.022705 
	C723.048584,318.316284 735.435425,317.996796 739.566895,323.461517 
	C740.091980,324.156006 740.610229,325.751312 740.302368,326.037659 
	C737.915649,328.257416 735.325195,330.258026 732.797729,332.326447 
	C732.487183,331.964325 732.176636,331.602173 731.866089,331.240051 
	C732.264160,330.602112 732.681580,329.975311 733.056519,329.324066 
	C734.054504,327.590454 735.034241,325.846344 736.021240,324.106384 
	C734.033691,323.475983 732.005066,322.228485 730.067993,322.357330 
	C727.027771,322.559448 724.049194,323.690094 720.677246,324.588623 
z"/>
<path fill="#FDEBC0" opacity="1.000000" stroke="none" 
	d="
M670.939453,354.378174 
	C670.089111,354.073517 668.981995,353.515381 668.979553,352.952484 
	C668.936462,342.971405 669.013489,332.989624 669.120239,323.008575 
	C669.127869,322.294250 669.565552,321.584503 670.618591,320.919250 
	C671.710571,332.005676 672.053345,343.045685 670.939453,354.378174 
z"/>
<path fill="#FDEBC4" opacity="1.000000" stroke="none" 
	d="
M640.932190,335.231201 
	C640.912720,335.774841 640.937988,336.047089 640.925537,336.106262 
	C640.913025,342.312653 640.913025,348.459839 640.913025,354.607056 
	C640.298950,354.589478 639.684814,354.571869 639.070740,354.554291 
	C639.070740,343.358765 639.070740,332.163208 639.070740,320.967682 
	C639.697693,320.942535 640.324707,320.917358 640.951660,320.892212 
	C640.951660,325.490662 640.951660,330.089111 640.932190,335.231201 
z"/>
<path fill="#FDEBC0" opacity="1.000000" stroke="none" 
	d="
M591.070923,324.576599 
	C591.315369,323.049561 591.557251,321.945068 591.799072,320.840546 
	C592.179993,320.898590 592.560852,320.956604 592.941772,321.014648 
	C592.941772,332.142792 592.941772,343.270966 592.941772,354.399109 
	C592.317261,354.405487 591.692810,354.411865 591.068298,354.418213 
	C591.068298,344.611847 591.068298,334.805450 591.070923,324.576599 
z"/>
<path fill="#FDEBC0" opacity="1.000000" stroke="none" 
	d="
M467.840637,341.981262 
	C467.841644,332.340485 467.841644,323.196747 467.841644,314.052979 
	C468.374298,314.059418 468.906982,314.065826 469.439636,314.072235 
	C469.439636,327.405243 469.439636,340.738281 469.439636,354.071289 
	C468.906311,354.093781 468.372986,354.116302 467.839661,354.138794 
	C467.839661,350.251953 467.839661,346.365082 467.840637,341.981262 
z"/>
<path fill="#FDEBC0" opacity="1.000000" stroke="none" 
	d="
M480.901520,325.816833 
	C480.547424,325.957001 480.419464,325.983276 480.356323,325.991272 
	C482.983215,318.365234 493.585754,316.750092 501.268219,324.138336 
	C493.554993,322.177582 486.916077,320.505493 480.901520,325.816833 
z"/>
<path fill="#E7AA57" opacity="1.000000" stroke="none" 
	d="
M797.102112,237.864532 
	C796.497925,235.016724 796.148682,231.935501 795.854370,228.410156 
	C799.791870,231.762009 801.358032,227.079865 804.717346,224.914017 
	C804.345215,231.199448 799.621094,233.740219 797.102112,237.864532 
z"/>
<path fill="#E6BB84" opacity="1.000000" stroke="none" 
	d="
M638.979736,169.253647 
	C636.952759,171.936844 634.564758,174.641861 632.176758,177.346893 
	C631.471252,177.846191 630.765808,178.345474 630.060303,178.844772 
	C629.150574,177.073654 628.240845,175.302536 627.193604,173.242218 
	C632.206665,175.802994 634.880371,170.865494 638.979736,169.253647 
z"/>
<path fill="#FEF5DE" opacity="1.000000" stroke="none" 
	d="
M78.788910,161.315491 
	C79.132408,161.616943 79.316360,162.232498 79.461098,162.857147 
	C79.802948,164.332489 80.126144,165.812180 80.456894,167.290100 
	C81.476517,166.059113 82.496147,164.828110 83.703300,163.318115 
	C83.172447,165.405060 82.540916,167.805847 81.624550,170.092484 
	C81.511375,170.374878 79.083237,170.126465 79.070351,169.993698 
	C78.800949,167.218353 78.725311,164.424179 78.788910,161.315491 
z"/>
<path fill="#FEF5DE" opacity="1.000000" stroke="none" 
	d="
M114.172821,311.451782 
	C114.749092,313.124146 115.563049,315.229767 115.882568,317.407928 
	C116.371994,320.744232 116.520752,324.130554 116.849472,327.894836 
	C115.994881,325.284576 114.847305,322.321136 114.298073,319.250702 
	C113.873253,316.875793 114.197685,314.366852 114.172821,311.451782 
z"/>
<path fill="#FEF5DE" opacity="1.000000" stroke="none" 
	d="
M83.901031,142.557953 
	C82.612091,147.681503 81.100464,153.060898 79.361473,158.698700 
	C80.648857,153.575989 82.163597,148.194885 83.901031,142.557953 
z"/>
<path fill="#E6BB84" opacity="1.000000" stroke="none" 
	d="
M598.346680,144.059082 
	C595.416565,142.975418 592.605835,141.537643 589.415588,140.056992 
	C592.681091,136.871246 596.252869,138.269226 598.346680,144.059082 
z"/>
<path fill="#FEF5DE" opacity="1.000000" stroke="none" 
	d="
M121.836823,331.444153 
	C125.594498,335.243011 121.851219,338.350433 119.922729,341.886353 
	C120.415932,338.621552 121.192177,335.222534 121.836823,331.444153 
z"/>
<path fill="#E7AA57" opacity="1.000000" stroke="none" 
	d="
M804.109009,246.156738 
	C802.713745,248.305557 800.919067,250.492996 798.431152,253.525330 
	C797.984436,251.121155 797.764587,249.938171 797.595581,248.388855 
	C799.667419,247.413452 801.688416,246.804398 804.109009,246.156738 
z"/>
<path fill="#FEF5DE" opacity="1.000000" stroke="none" 
	d="
M107.146080,285.491821 
	C107.573090,288.466522 108.039452,291.879578 108.313606,295.623718 
	C107.809402,292.613220 107.497421,289.271698 107.146080,285.491821 
z"/>
<path fill="#E7AA57" opacity="1.000000" stroke="none" 
	d="
M802.124817,171.244843 
	C804.938171,171.690567 807.775146,172.533600 810.860596,173.639893 
	C808.108154,173.204865 804.230103,175.983261 802.124817,171.244843 
z"/>
<path fill="#FEF5DE" opacity="1.000000" stroke="none" 
	d="
M80.637009,253.963440 
	C79.883881,256.704651 78.902267,259.717346 77.617241,262.866455 
	C78.345390,260.080200 79.376961,257.157562 80.637009,253.963440 
z"/>
<path fill="#FEF5DE" opacity="1.000000" stroke="none" 
	d="
M84.360321,162.098450 
	C84.563370,161.281021 85.032616,160.380127 85.501869,159.479233 
	C86.218628,160.246643 87.332657,160.915878 87.552681,161.806061 
	C87.834618,162.946655 87.396980,164.265106 87.034271,165.795517 
	C86.074944,164.727737 85.350731,163.371353 84.360321,162.098450 
z"/>
<path fill="#FEF5DE" opacity="1.000000" stroke="none" 
	d="
M89.208221,181.455841 
	C89.960625,184.174606 90.682045,187.291351 91.217194,190.694946 
	C90.413025,187.939148 89.795128,184.896484 89.208221,181.455841 
z"/>
<path fill="#E6BB84" opacity="1.000000" stroke="none" 
	d="
M627.016113,172.587997 
	C625.348389,171.290207 623.650146,169.636963 621.825928,167.692490 
	C623.461792,169.011688 625.223694,170.622116 627.016113,172.587997 
z"/>
<path fill="#FEF5DE" opacity="1.000000" stroke="none" 
	d="
M74.017334,281.402039 
	C75.626656,283.033691 74.095772,287.316711 79.037392,287.111053 
	C73.937889,288.833954 73.407898,288.316650 74.017334,281.402039 
z"/>
<path fill="#E6BB84" opacity="1.000000" stroke="none" 
	d="
M614.528320,160.005371 
	C612.933044,158.960831 611.404541,157.556351 609.749329,155.874359 
	C611.280151,156.946381 612.937622,158.295914 614.528320,160.005371 
z"/>
<path fill="#FEF5DE" opacity="1.000000" stroke="none" 
	d="
M87.684853,171.378571 
	C88.271385,173.478378 88.813705,175.945877 89.201996,178.695663 
	C88.578850,176.567383 88.109749,174.156815 87.684853,171.378571 
z"/>
<path fill="#E7AA57" opacity="1.000000" stroke="none" 
	d="
M821.940063,225.268723 
	C821.118469,226.807266 819.922974,228.341904 818.426697,230.012970 
	C819.272705,228.521225 820.419495,226.893005 821.940063,225.268723 
z"/>
<path fill="#E7AA57" opacity="1.000000" stroke="none" 
	d="
M816.860352,231.194778 
	C816.045532,232.721268 814.864868,234.274185 813.389832,235.975189 
	C814.228516,234.489258 815.361511,232.855240 816.860352,231.194778 
z"/>
<path fill="#E7AA57" opacity="1.000000" stroke="none" 
	d="
M811.213501,174.160919 
	C812.957886,174.312164 814.814880,174.825104 816.894226,175.618713 
	C815.186401,175.440460 813.256287,174.981537 811.213501,174.160919 
z"/>
<path fill="#E7AA57" opacity="1.000000" stroke="none" 
	d="
M812.759888,236.102676 
	C811.939819,237.614731 810.751709,239.133484 809.276123,240.793213 
	C810.123047,239.325928 811.257446,237.717651 812.759888,236.102676 
z"/>
<path fill="#FEF5DE" opacity="1.000000" stroke="none" 
	d="
M87.600204,135.052292 
	C87.177048,136.498611 86.497597,138.150070 85.482330,139.901535 
	C85.878983,138.420166 86.611435,136.838806 87.600204,135.052292 
z"/>
<path fill="#FEF5DE" opacity="1.000000" stroke="none" 
	d="
M74.900444,273.346375 
	C74.943100,274.541992 74.811180,276.055328 74.429016,277.765625 
	C74.361145,276.529724 74.543503,275.096893 74.900444,273.346375 
z"/>
<path fill="#FEF5DE" opacity="1.000000" stroke="none" 
	d="
M108.403442,298.332458 
	C108.981102,299.680145 109.521233,301.376251 110.064056,303.442688 
	C109.499802,302.102325 108.932854,300.391571 108.403442,298.332458 
z"/>
<path fill="#FEF5DE" opacity="1.000000" stroke="none" 
	d="
M110.151543,304.293213 
	C111.045105,305.164795 111.972626,306.357880 112.884598,307.920776 
	C111.974525,307.065308 111.080017,305.839996 110.151543,304.293213 
z"/>
<path fill="#FEF5DE" opacity="1.000000" stroke="none" 
	d="
M82.330978,286.616486 
	C83.680412,286.049286 85.376595,285.489655 87.445786,284.926300 
	C86.105087,285.489716 84.391403,286.056885 82.330978,286.616486 
z"/>
<path fill="#FEF5DE" opacity="1.000000" stroke="none" 
	d="
M120.097931,353.320496 
	C120.692276,354.209503 121.288177,355.447662 121.849068,357.080566 
	C121.242531,356.206757 120.671005,354.938232 120.097931,353.320496 
z"/>
<path fill="#E7AA57" opacity="1.000000" stroke="none" 
	d="
M797.938599,246.117065 
	C797.585449,244.646164 797.238037,242.735809 796.942871,240.404556 
	C797.311523,241.881638 797.627930,243.779633 797.938599,246.117065 
z"/>
<path fill="#FEF5DE" opacity="1.000000" stroke="none" 
	d="
M92.325317,283.703674 
	C93.119011,283.287720 94.250565,282.849915 95.646652,282.554321 
	C94.828506,283.024963 93.745842,283.353363 92.325317,283.703674 
z"/>
<path fill="#FEF5DE" opacity="1.000000" stroke="none" 
	d="
M117.946457,329.350067 
	C118.734596,329.448303 119.725830,329.786652 120.863159,330.413055 
	C120.056015,330.330780 119.102791,329.960480 117.946457,329.350067 
z"/>
<path fill="#E6BB84" opacity="1.000000" stroke="none" 
	d="
M642.895508,165.276428 
	C642.719482,165.827988 642.224731,166.430756 641.453735,167.148575 
	C641.643921,166.618301 642.110352,165.972977 642.895508,165.276428 
z"/>
<path fill="#E7AA57" opacity="1.000000" stroke="none" 
	d="
M802.144531,165.164917 
	C802.182434,165.677490 801.930298,166.216324 801.462891,166.962112 
	C801.449951,166.509766 801.652222,165.850464 802.144531,165.164917 
z"/>
<path fill="#FDEBC0" opacity="1.000000" stroke="none" 
	d="
M479.430481,329.547333 
	C479.668060,329.943726 479.842255,330.596008 480.036285,331.507935 
	C479.826477,331.112823 479.596802,330.458008 479.430481,329.547333 
z"/>
<path fill="#FEF5DE" opacity="1.000000" stroke="none" 
	d="
M100.681152,282.301758 
	C101.024170,282.161987 101.625397,282.131866 102.397087,282.150330 
	C102.024818,282.269745 101.482094,282.340546 100.681152,282.301758 
z"/>
<path fill="#FEF5DE" opacity="1.000000" stroke="none" 
	d="
M90.719765,129.098785 
	C90.734550,129.454575 90.518730,130.006897 90.078033,130.762512 
	C90.065147,130.408981 90.277153,129.852158 90.719765,129.098785 
z"/>
<path fill="#FEF5DE" opacity="1.000000" stroke="none" 
	d="
M88.675827,132.984146 
	C88.696686,133.351883 88.492264,133.941055 88.053123,134.746765 
	C88.029121,134.377380 88.239830,133.791489 88.675827,132.984146 
z"/>
<path fill="#E6BB84" opacity="1.000000" stroke="none" 
	d="
M617.583496,163.079102 
	C617.224976,163.051620 616.759094,162.757477 616.171631,162.209137 
	C616.525452,162.240784 617.000793,162.526596 617.583496,163.079102 
z"/>
<path fill="#E6BB84" opacity="1.000000" stroke="none" 
	d="
M599.858276,145.812134 
	C599.514221,145.759811 599.119263,145.429504 598.630981,144.855652 
	C598.960938,144.919479 599.384094,145.226822 599.858276,145.812134 
z"/>
<path fill="#E6BB84" opacity="1.000000" stroke="none" 
	d="
M615.972534,161.673767 
	C615.632324,161.601212 615.220154,161.253098 614.710449,160.648712 
	C615.042175,160.727707 615.471375,161.062958 615.972534,161.673767 
z"/>
<path fill="#E6BB84" opacity="1.000000" stroke="none" 
	d="
M609.479004,155.138870 
	C609.105591,155.120224 608.651978,154.824463 608.084473,154.275513 
	C608.446594,154.302124 608.922668,154.581924 609.479004,155.138870 
z"/>
<path fill="#E6BB84" opacity="1.000000" stroke="none" 
	d="
M644.056580,164.270966 
	C644.083130,164.438141 643.869507,164.714737 643.410950,165.094147 
	C643.382751,164.924759 643.599609,164.652588 644.056580,164.270966 
z"/>
<path fill="#E6BB84" opacity="1.000000" stroke="none" 
	d="
M621.598999,167.061554 
	C621.363098,167.225708 621.101990,167.063629 620.805908,166.583511 
	C621.042358,166.409286 621.309937,166.565903 621.598999,167.061554 
z"/>
<path fill="#E6BB84" opacity="1.000000" stroke="none" 
	d="
M619.555176,165.070282 
	C619.314697,165.216415 619.065063,165.042969 618.792236,164.560669 
	C619.038208,164.394501 619.297180,164.560822 619.555176,165.070282 
z"/>
<path fill="#E6BB84" opacity="1.000000" stroke="none" 
	d="
M618.583130,164.052185 
	C618.340576,164.200623 618.089478,164.026749 617.810303,163.545593 
	C618.059631,163.369766 618.323853,163.533600 618.583130,164.052185 
z"/>
<path fill="#E6BB84" opacity="1.000000" stroke="none" 
	d="
M607.859375,153.816681 
	C607.705505,153.849197 607.425903,153.666077 607.039917,153.250458 
	C607.252808,153.140167 607.519470,153.334518 607.859375,153.816681 
z"/>
<path fill="#E6BB84" opacity="1.000000" stroke="none" 
	d="
M600.826538,146.909149 
	C600.665405,146.938797 600.383789,146.742935 600.005127,146.303680 
	C600.174011,146.268082 600.440002,146.475861 600.826538,146.909149 
z"/>
<path fill="#FEF5DE" opacity="1.000000" stroke="none" 
	d="
M84.740753,140.939270 
	C84.851273,141.086929 84.726234,141.380798 84.393494,141.837036 
	C84.234978,141.679108 84.341438,141.374481 84.740753,140.939270 
z"/>
<path fill="#FEF5DE" opacity="1.000000" stroke="none" 
	d="
M119.168213,349.260437 
	C119.406204,349.213989 119.483925,349.446381 119.357635,349.834595 
	C119.292252,349.947601 119.146568,349.496460 119.168213,349.260437 
z"/>
<path fill="#FEF5DE" opacity="1.000000" stroke="none" 
	d="
M119.822861,352.442871 
	C119.879333,352.353363 119.995499,352.661438 120.016296,352.741760 
	C120.037086,352.822052 119.766388,352.532379 119.822861,352.442871 
z"/>
<path fill="#FEF5DE" opacity="1.000000" stroke="none" 
	d="
M89.741455,130.993362 
	C89.846992,131.155228 89.707115,131.411057 89.363495,131.794235 
	C89.204445,131.623413 89.316544,131.345337 89.741455,130.993362 
z"/>
<path fill="#E6BB84" opacity="1.000000" stroke="none" 
	d="
M620.555115,166.073853 
	C620.319214,166.220612 620.071533,166.051468 619.793945,165.580490 
	C620.035278,165.409576 620.295044,165.569336 620.555115,166.073853 
z"/>
<path fill="#FEF5DE" opacity="1.000000" stroke="none" 
	d="
M75.916656,268.125793 
	C75.985703,268.059509 75.971893,268.377197 75.956604,268.452850 
	C75.941322,268.528503 75.847603,268.192078 75.916656,268.125793 
z"/>
<path fill="#E7AA57" opacity="1.000000" stroke="none" 
	d="
M801.171448,170.068298 
	C801.311462,170.063614 801.597595,170.274918 801.984741,170.735565 
	C801.829712,170.751389 801.573608,170.517838 801.171448,170.068298 
z"/>
<path fill="#FEF5DE" opacity="1.000000" stroke="none" 
	d="
M113.798706,310.400146 
	C113.839767,310.307495 113.983253,310.593048 114.014023,310.667725 
	C114.044792,310.742432 113.757637,310.492828 113.798706,310.400146 
z"/>
<path fill="#E7AA57" opacity="1.000000" stroke="none" 
	d="
M817.909729,230.182861 
	C817.941101,230.348953 817.765930,230.672028 817.313904,231.063583 
	C817.259033,230.867981 817.481079,230.603897 817.909729,230.182861 
z"/>
<path fill="#E7AA57" opacity="1.000000" stroke="none" 
	d="
M808.749756,241.159821 
	C808.864502,241.339386 808.706543,241.610474 808.235107,241.930405 
	C808.171814,241.768417 808.356995,241.525787 808.749756,241.159821 
z"/>
<path fill="#FEF5DE" opacity="1.000000" stroke="none" 
	d="
M88.297722,284.869049 
	C88.326584,284.689575 88.666267,284.489014 89.290909,284.195526 
	C89.253426,284.351074 88.930984,284.599518 88.297722,284.869049 
z"/>
<path fill="#FEF5DE" opacity="1.000000" stroke="none" 
	d="
M105.776703,283.362305 
	C105.939316,283.355377 106.267731,283.615417 106.749680,284.155090 
	C106.582977,284.166260 106.262741,283.897797 105.776703,283.362305 
z"/>
<path fill="#E7AA57" opacity="1.000000" stroke="none" 
	d="
M807.840515,242.168549 
	C807.859070,242.308319 807.681152,242.596268 807.260620,242.978989 
	C807.188232,242.789566 807.396912,242.537216 807.840515,242.168549 
z"/>
<path fill="#E7AA57" opacity="1.000000" stroke="none" 
	d="
M806.871582,243.173370 
	C806.895935,243.324921 806.718445,243.633224 806.283447,244.031647 
	C806.240601,243.857880 806.455139,243.594009 806.871582,243.173370 
z"/>
<path fill="#E7AA57" opacity="1.000000" stroke="none" 
	d="
M805.900757,244.211090 
	C805.937195,244.365280 805.759399,244.718506 805.325073,245.236908 
	C805.274536,245.071442 805.480530,244.740799 805.900757,244.211090 
z"/>
<path fill="#EBAC57" opacity="1.000000" stroke="none" 
	d="
M83.237106,257.781403 
	C86.310654,249.946274 89.359436,242.475372 92.490967,234.626953 
	C92.760223,233.795166 92.946747,233.340897 93.345116,232.383728 
	C93.703392,231.262634 93.849815,230.644470 93.996246,230.026291 
	C93.996246,230.026291 94.040085,230.008484 94.124481,229.905060 
	C94.310028,229.634705 94.298134,229.476288 94.173172,229.326401 
	C94.352211,228.809387 94.531242,228.292374 94.859924,227.049622 
	C95.034058,225.878021 95.058548,225.432175 95.083031,224.986328 
	C95.083031,224.986328 95.196831,224.748199 95.343658,224.423431 
	C95.573807,223.753387 95.657120,223.408112 95.740433,223.062836 
	C95.837448,222.607498 95.934464,222.152145 96.179626,221.125336 
	C96.387291,220.027908 96.446808,219.501984 96.506325,218.976044 
	C96.676369,214.287842 96.846413,209.599640 96.988449,204.204971 
	C96.960449,203.498505 96.848267,203.020569 96.848267,203.020569 
	C96.824402,201.947098 96.800529,200.873642 96.752838,199.006561 
	C96.197006,195.020554 95.664993,191.828140 95.132980,188.635727 
	C95.115112,187.965256 95.097244,187.294800 95.032921,185.894165 
	C94.371658,182.320526 93.756859,179.477036 93.142052,176.633545 
	C92.522797,170.004654 91.841026,163.380875 91.297691,156.745773 
	C90.265007,144.134842 93.234314,133.059097 101.661629,123.000298 
	C117.725464,103.826584 138.160278,91.559250 161.341003,83.582993 
	C183.308884,76.024055 206.045197,73.577065 229.289932,74.886253 
	C268.291565,77.082924 294.449554,97.328209 310.446991,131.942734 
	C319.325134,151.152924 323.526062,171.398041 322.167755,192.636475 
	C320.509766,218.560776 311.746796,242.350403 300.126556,265.251526 
	C291.314697,282.617859 281.924011,299.680878 276.677246,318.659241 
	C270.096558,342.462799 269.236816,366.172028 275.637817,390.156555 
	C277.950348,398.821381 279.284760,407.747498 281.058350,416.555786 
	C281.778290,420.131195 280.259338,421.864410 276.802002,423.132263 
	C261.453430,428.760773 245.750366,431.799652 229.342178,431.091339 
	C215.700363,430.502472 205.175720,424.508423 197.391968,413.442230 
	C189.806488,402.657990 187.425629,390.418762 187.034485,377.516327 
	C186.909821,373.403931 186.183304,369.205597 185.031097,365.250824 
	C182.828217,357.689941 177.946609,355.184540 170.479492,357.627563 
	C165.272690,359.331055 160.321991,361.841980 155.085022,363.422821 
	C147.825394,365.614258 140.543427,365.561951 133.954010,361.132538 
	C125.632553,355.538788 123.572960,346.311432 128.625778,335.908752 
	C130.697250,331.644043 132.495056,328.112061 128.110413,324.066864 
	C126.437325,322.523315 126.004951,319.607086 125.078468,317.287933 
	C123.077789,312.279846 120.695335,307.707458 117.373657,303.216736 
	C114.370323,299.156342 113.671547,292.612885 113.763115,287.194916 
	C113.992493,273.622803 114.972527,274.907379 101.968086,276.701630 
	C94.891922,277.677917 87.770630,278.327057 80.166000,278.631714 
	C79.769066,275.428680 79.875809,272.717682 79.982559,270.006714 
	C80.086456,269.399109 80.190353,268.791473 80.438675,267.692688 
	C80.668602,266.814056 80.754112,266.426605 80.839622,266.039154 
	C80.934227,265.677643 81.028824,265.316101 81.279785,264.486511 
	C81.623444,263.732819 81.696762,263.420532 81.656105,263.081573 
	C82.174850,261.436249 82.693596,259.790955 83.237106,257.781403 
M219.705414,144.309067 
	C215.528854,145.965027 211.460663,148.037903 207.145218,149.159485 
	C202.845291,150.277023 200.610489,152.015457 202.587372,156.742493 
	C196.794327,158.232483 191.915726,156.491119 187.336914,154.108612 
	C178.626007,149.576111 170.180206,144.530396 161.436874,140.064804 
	C148.332169,133.371658 133.305954,137.015137 126.397362,149.874817 
	C121.923004,158.203415 118.873245,167.702972 117.186996,177.039398 
	C113.664726,196.541580 115.684128,216.193130 118.258949,235.714996 
	C118.850983,240.203659 120.514557,241.139938 124.769867,238.867126 
	C131.962769,235.025360 139.484116,232.104675 147.649689,232.899063 
	C159.048889,234.008026 170.436768,235.550659 181.706131,237.589600 
	C193.536530,239.730042 204.770035,239.346695 215.658737,233.652237 
	C226.492371,227.986557 238.020935,227.665970 249.741425,230.306244 
	C257.044617,231.951431 264.336975,233.648697 271.609741,235.422882 
	C275.167053,236.290665 276.770691,235.109863 277.372803,231.420181 
	C279.191162,220.277481 281.070618,209.134811 283.355225,198.080795 
	C285.818024,186.164612 288.501556,174.327164 287.059784,162.024109 
	C285.234741,146.450806 273.030884,128.865250 251.940918,133.293320 
	C241.152481,135.558487 230.894882,140.351852 219.705414,144.309067 
z"/>
<path fill="#FEF5DE" opacity="1.000000" stroke="none" 
	d="
M79.647217,270.166626 
	C79.875809,272.717682 79.769066,275.428680 79.697594,278.591675 
	C77.131210,276.256836 77.322075,273.335144 79.647217,270.166626 
z"/>
<path fill="#FEF5DE" opacity="1.000000" stroke="none" 
	d="
M95.094627,189.108093 
	C95.664993,191.828140 96.197006,195.020554 96.655533,198.614624 
	C96.073463,195.871002 95.564873,192.725739 95.094627,189.108093 
z"/>
<path fill="#FEF5DE" opacity="1.000000" stroke="none" 
	d="
M93.105545,177.081085 
	C93.756859,179.477036 94.371658,182.320526 94.947495,185.568024 
	C94.295357,183.157562 93.682198,180.343109 93.105545,177.081085 
z"/>
<path fill="#FEF5DE" opacity="1.000000" stroke="none" 
	d="
M96.302765,219.069489 
	C96.446808,219.501984 96.387291,220.027908 96.169556,220.774994 
	C96.040634,220.385071 96.069923,219.774002 96.302765,219.069489 
z"/>
<path fill="#FEF5DE" opacity="1.000000" stroke="none" 
	d="
M94.912979,225.141281 
	C95.058548,225.432175 95.034058,225.878021 94.895248,226.639832 
	C94.768257,226.402603 94.755592,225.849411 94.912979,225.141281 
z"/>
<path fill="#FEF5DE" opacity="1.000000" stroke="none" 
	d="
M93.793213,230.275970 
	C93.849815,230.644470 93.703392,231.262634 93.352875,232.136200 
	C93.295914,231.769623 93.443039,231.147644 93.793213,230.275970 
z"/>
<path fill="#FEF5DE" opacity="1.000000" stroke="none" 
	d="
M86.492081,156.508270 
	C86.485023,156.488388 86.499130,156.528152 86.492081,156.508270 
z"/>
<path fill="#FEF5DE" opacity="1.000000" stroke="none" 
	d="
M96.766815,203.132172 
	C96.848267,203.020569 96.960449,203.498505 96.924026,203.741180 
	C96.660294,203.776505 96.592888,203.529816 96.766815,203.132172 
z"/>
<path fill="#FEF5DE" opacity="1.000000" stroke="none" 
	d="
M95.590286,223.278442 
	C95.657120,223.408112 95.573807,223.753387 95.300629,224.298706 
	C95.220558,224.163849 95.330345,223.828964 95.590286,223.278442 
z"/>
<path fill="#FEF5DE" opacity="1.000000" stroke="none" 
	d="
M94.134781,229.429443 
	C94.298134,229.476288 94.310028,229.634705 94.112320,229.884766 
	C94.015762,229.967896 94.096390,229.532486 94.134781,229.429443 
z"/>
<path fill="#FEF5DE" opacity="1.000000" stroke="none" 
	d="
M81.521484,263.278442 
	C81.696762,263.420532 81.623444,263.732819 81.273102,264.205536 
	C81.141335,264.068451 81.233597,263.762665 81.521484,263.278442 
z"/>
<path fill="#FEF5DE" opacity="1.000000" stroke="none" 
	d="
M80.676903,266.275665 
	C80.754112,266.426605 80.668602,266.814056 80.347488,267.396118 
	C80.245979,267.231201 80.380081,266.871674 80.676903,266.275665 
z"/>
<path fill="#EAAC58" opacity="1.000000" stroke="none" 
	d="
M405.471497,210.520737 
	C402.324707,200.923676 399.282776,191.609070 396.184540,182.313263 
	C394.710480,177.890549 392.974609,173.547684 391.698090,169.071472 
	C391.349701,167.849823 391.883575,165.266861 392.608276,165.013657 
	C405.589661,160.478027 418.328827,154.440521 432.688171,156.647614 
	C449.496521,159.231155 457.866394,179.476425 447.844025,193.252701 
	C445.535675,196.425674 442.921265,199.376038 439.418091,203.699600 
	C444.083008,203.699600 447.343781,203.587585 450.594635,203.719360 
	C463.321655,204.235321 471.377014,210.203583 474.835938,221.570831 
	C478.318024,233.014099 474.873901,243.178436 464.734344,250.477936 
	C453.865601,258.302429 441.059418,261.731598 428.620758,265.963654 
	C425.521149,267.018250 424.961731,264.747101 424.236633,262.668121 
	C419.906067,250.251801 415.623474,237.818390 411.219299,225.428223 
	C409.469788,220.506302 407.450012,215.680466 405.471497,210.520737 
z"/>
<path fill="#EAAD5A" opacity="1.000000" stroke="none" 
	d="
M838.829224,182.644394 
	C837.860901,183.250565 836.703674,183.922729 835.493896,184.036530 
	C833.430542,184.230621 831.324402,184.190796 829.255859,184.016403 
	C828.199829,183.927368 827.186401,183.332809 826.153748,182.966751 
	C826.942383,182.273926 827.671631,181.489853 828.542236,180.923065 
	C829.048828,180.593277 829.782104,180.611847 830.678101,180.297485 
	C833.500793,180.900635 836.058716,181.679932 838.829224,182.644394 
z"/>
<path fill="#FEF8EC" opacity="1.000000" stroke="none" 
	d="
M220.051392,144.155823 
	C230.894882,140.351852 241.152481,135.558487 251.940918,133.293320 
	C273.030884,128.865250 285.234741,146.450806 287.059784,162.024109 
	C288.501556,174.327164 285.818024,186.164612 283.355225,198.080795 
	C281.070618,209.134811 279.191162,220.277481 277.372803,231.420181 
	C276.770691,235.109863 275.167053,236.290665 271.609741,235.422882 
	C264.336975,233.648697 257.044617,231.951431 249.741425,230.306244 
	C238.020935,227.665970 226.492371,227.986557 215.658737,233.652237 
	C204.770035,239.346695 193.536530,239.730042 181.706131,237.589600 
	C170.436768,235.550659 159.048889,234.008026 147.649689,232.899063 
	C139.484116,232.104675 131.962769,235.025360 124.769867,238.867126 
	C120.514557,241.139938 118.850983,240.203659 118.258949,235.714996 
	C115.684128,216.193130 113.664726,196.541580 117.186996,177.039398 
	C118.873245,167.702972 121.923004,158.203415 126.397362,149.874817 
	C133.305954,137.015137 148.332169,133.371658 161.436874,140.064804 
	C170.180206,144.530396 178.626007,149.576111 187.336914,154.108612 
	C191.915726,156.491119 196.794327,158.232483 202.587372,156.742493 
	C200.610489,152.015457 202.845291,150.277023 207.145218,149.159485 
	C211.460663,148.037903 215.528854,145.965027 220.051392,144.155823 
M122.790565,212.494904 
	C122.859108,216.327011 122.888123,220.160324 123.006073,223.990906 
	C123.157959,228.923096 124.373016,230.027313 129.195435,228.672546 
	C140.602997,225.467850 151.896866,226.347229 163.314255,228.645905 
	C172.107620,230.416290 180.971954,232.317490 189.885757,232.882828 
	C200.830948,233.576965 204.532227,229.481354 204.923325,218.601242 
	C204.947266,217.935181 204.987808,217.266769 204.958160,216.602219 
	C204.535629,207.123962 204.126541,197.645020 203.664093,188.168671 
	C203.277130,180.239288 202.824753,172.313126 202.388702,164.149048 
	C192.887039,164.281128 185.757477,158.926224 178.015289,154.707291 
	C170.180237,150.437744 162.001678,146.483231 153.531067,143.774536 
	C142.798019,140.342377 135.053284,144.402756 130.260406,154.526154 
	C128.772888,157.668045 127.586075,160.996368 126.650276,164.347855 
	C122.334961,179.802979 122.882080,195.682068 122.790565,212.494904 
M278.341064,152.373123 
	C271.836212,138.998627 262.552551,136.402847 248.768677,140.162247 
	C234.722778,143.993118 221.267868,149.990860 208.052841,154.856262 
	C210.677658,180.357681 213.655060,205.007065 206.724655,230.617050 
	C210.096085,229.336090 212.102554,228.613953 214.078506,227.816254 
	C224.323715,223.680130 234.785858,221.811752 245.824707,224.112717 
	C252.659866,225.537430 259.597412,226.464371 266.466461,227.736374 
	C269.379333,228.275803 271.138763,227.819092 271.832031,224.442245 
	C273.838348,214.669647 276.119049,204.953079 278.318573,195.220505 
	C281.489258,181.190659 284.701721,167.166260 278.341064,152.373123 
z"/>
<path fill="#E9AC58" opacity="1.000000" stroke="none" 
	d="
M122.776611,211.995972 
	C122.882080,195.682068 122.334961,179.802979 126.650276,164.347855 
	C127.586075,160.996368 128.772888,157.668045 130.260406,154.526154 
	C135.053284,144.402756 142.798019,140.342377 153.531067,143.774536 
	C162.001678,146.483231 170.180237,150.437744 178.015289,154.707291 
	C185.757477,158.926224 192.887039,164.281128 202.388702,164.149048 
	C202.824753,172.313126 203.277130,180.239288 203.664093,188.168671 
	C204.126541,197.645020 204.535629,207.123962 204.958160,216.602219 
	C204.987808,217.266769 204.947266,217.935181 204.923325,218.601242 
	C204.532227,229.481354 200.830948,233.576965 189.885757,232.882828 
	C180.971954,232.317490 172.107620,230.416290 163.314255,228.645905 
	C151.896866,226.347229 140.602997,225.467850 129.195435,228.672546 
	C124.373016,230.027313 123.157959,228.923096 123.006073,223.990906 
	C122.888123,220.160324 122.859108,216.327011 122.776611,211.995972 
M164.557755,175.670700 
	C169.343109,183.951447 176.283264,188.296234 186.018387,186.832260 
	C187.738464,186.573578 189.220490,184.731796 190.812454,183.621078 
	C189.116028,182.782150 187.343719,181.102051 185.736069,181.247086 
	C177.965530,181.948135 172.550186,179.223495 169.316772,171.944275 
	C168.737778,170.640793 166.510956,169.114288 165.220413,169.258713 
	C161.146011,169.714630 157.083084,170.696289 153.180573,171.976929 
	C152.164703,172.310318 151.749954,174.475494 151.059097,175.799316 
	C152.463684,176.268738 153.920700,177.243103 155.262100,177.103851 
	C158.173706,176.801575 161.026230,175.930328 164.557755,175.670700 
M164.763412,201.176437 
	C159.214630,202.079865 153.623703,202.796600 148.150009,204.032562 
	C146.948715,204.303818 146.164459,206.422119 145.188156,207.689835 
	C146.549576,208.272751 147.954742,209.441620 149.265381,209.343811 
	C157.995865,208.692307 166.719788,207.881271 175.408630,206.818039 
	C176.738297,206.655319 177.875763,204.921829 179.102097,203.914810 
	C177.786362,202.987808 176.551651,201.445999 175.138290,201.259735 
	C172.041489,200.851593 168.854156,201.130554 164.763412,201.176437 
z"/>
<path fill="#EAAD5A" opacity="1.000000" stroke="none" 
	d="
M278.508575,152.716858 
	C284.701721,167.166260 281.489258,181.190659 278.318573,195.220505 
	C276.119049,204.953079 273.838348,214.669647 271.832031,224.442245 
	C271.138763,227.819092 269.379333,228.275803 266.466461,227.736374 
	C259.597412,226.464371 252.659866,225.537430 245.824707,224.112717 
	C234.785858,221.811752 224.323715,223.680130 214.078506,227.816254 
	C212.102554,228.613953 210.096085,229.336090 206.724655,230.617050 
	C213.655060,205.007065 210.677658,180.357681 208.052841,154.856262 
	C221.267868,149.990860 234.722778,143.993118 248.768677,140.162247 
	C262.552551,136.402847 271.836212,138.998627 278.508575,152.716858 
M227.119171,167.512436 
	C224.818359,168.464493 222.365616,169.171478 220.277252,170.466187 
	C219.137207,171.172974 218.614273,172.875183 217.813034,174.128464 
	C219.348358,174.653076 221.259979,176.045593 222.360870,175.568253 
	C233.533966,170.723862 245.095001,168.352539 257.289764,168.883514 
	C258.379272,168.930939 259.533844,167.484848 260.658173,166.732376 
	C259.688568,165.577148 258.896118,164.152481 257.688812,163.358719 
	C256.844086,162.803314 255.399780,162.895187 254.279282,163.065872 
	C245.463989,164.408707 236.662216,165.840195 227.119171,167.512436 
M246.448624,200.084274 
	C250.322891,197.863205 254.286453,195.776703 257.999207,193.312378 
	C258.781647,192.793045 258.644226,190.887878 258.930664,189.621277 
	C257.608124,189.352921 256.244202,188.757767 254.975967,188.918335 
	C253.937561,189.049820 253.020493,190.093323 252.037033,190.712524 
	C244.205475,195.643555 236.063812,198.798569 226.545868,196.016968 
	C225.338165,195.664017 223.601807,197.119949 222.110352,197.737839 
	C223.165665,198.976028 223.980042,200.816666 225.316757,201.351257 
	C232.197906,204.103180 239.016953,202.825195 246.448624,200.084274 
z"/>
<path fill="#FEF8E8" opacity="1.000000" stroke="none" 
	d="
M164.230331,175.481201 
	C161.026230,175.930328 158.173706,176.801575 155.262100,177.103851 
	C153.920700,177.243103 152.463684,176.268738 151.059097,175.799316 
	C151.749954,174.475494 152.164703,172.310318 153.180573,171.976929 
	C157.083084,170.696289 161.146011,169.714630 165.220413,169.258713 
	C166.510956,169.114288 168.737778,170.640793 169.316772,171.944275 
	C172.550186,179.223495 177.965530,181.948135 185.736069,181.247086 
	C187.343719,181.102051 189.116028,182.782150 190.812454,183.621078 
	C189.220490,184.731796 187.738464,186.573578 186.018387,186.832260 
	C176.283264,188.296234 169.343109,183.951447 164.230331,175.481201 
z"/>
<path fill="#FEF8E8" opacity="1.000000" stroke="none" 
	d="
M165.233597,201.152679 
	C168.854156,201.130554 172.041489,200.851593 175.138290,201.259735 
	C176.551651,201.445999 177.786362,202.987808 179.102112,203.914825 
	C177.875763,204.921829 176.738297,206.655319 175.408630,206.818039 
	C166.719788,207.881271 157.995865,208.692307 149.265381,209.343811 
	C147.954742,209.441620 146.549576,208.272751 145.188156,207.689819 
	C146.164459,206.422119 146.948715,204.303818 148.150009,204.032562 
	C153.623703,202.796600 159.214630,202.079865 165.233597,201.152679 
z"/>
<path fill="#FEF8EA" opacity="1.000000" stroke="none" 
	d="
M227.487732,167.378418 
	C236.662216,165.840195 245.463989,164.408707 254.279282,163.065872 
	C255.399780,162.895187 256.844086,162.803314 257.688812,163.358719 
	C258.896118,164.152481 259.688568,165.577148 260.658173,166.732391 
	C259.533844,167.484848 258.379272,168.930939 257.289764,168.883514 
	C245.095001,168.352539 233.533966,170.723862 222.360870,175.568253 
	C221.259979,176.045593 219.348358,174.653076 217.813049,174.128479 
	C218.614273,172.875183 219.137207,171.172974 220.277252,170.466187 
	C222.365616,169.171478 224.818359,168.464493 227.487732,167.378418 
z"/>
<path fill="#FEF8E9" opacity="1.000000" stroke="none" 
	d="
M246.084442,200.225540 
	C239.016953,202.825195 232.197906,204.103180 225.316757,201.351257 
	C223.980042,200.816666 223.165665,198.976028 222.110352,197.737854 
	C223.601807,197.119949 225.338165,195.664017 226.545868,196.016968 
	C236.063812,198.798569 244.205475,195.643555 252.037033,190.712524 
	C253.020493,190.093323 253.937561,189.049820 254.975967,188.918335 
	C256.244202,188.757767 257.608124,189.352921 258.930664,189.621277 
	C258.644226,190.887878 258.781647,192.793045 257.999207,193.312378 
	C254.286453,195.776703 250.322891,197.863205 246.084442,200.225540 
z"/>
</svg>